<?xml version="1.0" encoding="UTF-8"?>
<svg width="24px" height="30px" viewBox="0 0 24 30" version="1.1" xmlns="http://www.w3.org/2000/svg" xmlns:xlink="http://www.w3.org/1999/xlink">
    <!-- Generator: Sketch 48.2 (47327) - http://www.bohemiancoding.com/sketch -->
    <title>ic_address</title>
    <desc>Created with Sketch.</desc>
    <defs></defs>
    <g id="UXPH2018_AboutUs" stroke="none" stroke-width="1" fill="none" fill-rule="evenodd" transform="translate(-171.000000, -356.000000)">
        <g id="content" transform="translate(-185.000000, 61.000000)">
            <g id="copy_0" transform="translate(353.000000, 57.000000)">
                <g id="ic_address" transform="translate(3.000000, 238.000000)">
                    <path d="M7.70085162,22.1284462 L8.06368059,22.2826656 L8.22365137,22.6429958 C9.14806853,24.7252222 9.99527067,26.2728901 10.7510492,27.2748439 C11.3898623,28.1217337 11.8913722,28.4864676 12.1656669,28.4864676 C12.4483839,28.4864676 12.9690466,28.1042547 13.6316811,27.2226399 C14.4123736,26.1839527 15.2905583,24.5816467 16.2522336,22.4269021 L16.402261,22.0907483 L16.7344326,21.9320984 C20.5312448,20.1186868 23,16.2823112 23,12 C23,5.92486775 18.0751322,1 12,1 C5.92486775,1 1,5.92486775 1,12 C1,16.45406 3.67149344,20.4157791 7.70085162,22.1284462 Z" id="Combined-Shape" stroke="#000000" stroke-width="2"></path>
                    <path d="M12,16 C9.790861,16 8,14.209139 8,12 C8,9.790861 9.790861,8 12,8 C14.209139,8 16,9.790861 16,12 C16,14.209139 14.209139,16 12,16 Z M12,13.3333333 C12.7363797,13.3333333 13.3333333,12.7363797 13.3333333,12 C13.3333333,11.2636203 12.7363797,10.6666667 12,10.6666667 C11.2636203,10.6666667 10.6666667,11.2636203 10.6666667,12 C10.6666667,12.7363797 11.2636203,13.3333333 12,13.3333333 Z" id="Combined-Shape" fill="#000000"></path>
                </g>
            </g>
        </g>
    </g>
</svg>