<?xml version="1.0" encoding="UTF-8"?>
<svg width="639px" height="803px" viewBox="0 0 639 803" version="1.1" xmlns="http://www.w3.org/2000/svg" xmlns:xlink="http://www.w3.org/1999/xlink">
    <!-- Generator: Sketch 48.2 (47327) - http://www.bohemiancoding.com/sketch -->
    <title>illustration_1</title>
    <desc>Created with Sketch.</desc>
    <defs>
        <linearGradient x1="0%" y1="0%" x2="100%" y2="100%" id="linearGradient-1">
            <stop stop-color="#805891" offset="0%"></stop>
            <stop stop-color="#2E2D68" offset="100%"></stop>
        </linearGradient>
        <rect id="path-2" x="0" y="0" width="600" height="600"></rect>
        <linearGradient x1="5.95703125%" y1="50%" x2="100%" y2="50%" id="linearGradient-4">
            <stop stop-color="#B38CE4" stop-opacity="0" offset="0%"></stop>
            <stop stop-color="#7B54C4" offset="100%"></stop>
        </linearGradient>
        <polygon id="path-5" points="25.2879639 29.7229004 50.1025391 15.2763672 25.2879639 0.850341797 0.473388672 14.9169922"></polygon>
        <polygon id="path-7" points="26.1146833 30.9178762 51.1025391 15.2763672 26.2879639 0.850341797 0.713982481 16.2604625"></polygon>
        <polygon id="path-9" points="23.0597063 54.4429072 87.7338782 15.7509212 65.2862267 0.334684249 0.742544793 37.5989964"></polygon>
    </defs>
    <g id="UXPH2018_AboutUs" stroke="none" stroke-width="1" fill="none" fill-rule="evenodd" transform="translate(-641.000000, -175.000000)">
        <g id="content" transform="translate(-185.000000, 61.000000)">
            <g id="illustration_1" transform="translate(785.000000, 114.000000)">
                <g id="isometric-grid" transform="translate(80.000000, 135.000000)">
                    <mask id="mask-3" fill="white">
                        <use xlink:href="#path-2"></use>
                    </mask>
                    <use id="Mask" fill="url(#linearGradient-1)" xlink:href="#path-2"></use>
                </g>
                <path d="M332,295 L506.008153,393.595956" id="Line-5" stroke="#50E3C2" stroke-linecap="square"></path>
                <polygon id="Path-8" fill-opacity="0.3" fill="url(#linearGradient-4)" points="0.0610351562 707.01123 0.0610351562 734.970947 680 734.970947 680 302.945312"></polygon>
                <path d="M582,351 L680,409.341459" id="Line-5" stroke="#50E3C2" stroke-linecap="square"></path>
                <g id="Group-2" transform="translate(285.000000, 0.000000)">
                    <rect id="Rectangle-9" fill="#D8D8D8" x="209" y="0" width="11" height="11"></rect>
                    <rect id="Rectangle-9" fill="#D8D8D8" x="279" y="0" width="11" height="11"></rect>
                    <rect id="Rectangle-9" fill="#00C5FF" x="209" y="70" width="11" height="11"></rect>
                    <rect id="Rectangle-9" fill="#D8D8D8" x="279" y="70" width="11" height="11"></rect>
                    <rect id="Rectangle-9" fill="#D8D8D8" x="349" y="0" width="11" height="11"></rect>
                    <rect id="Rectangle-9" fill="#00C5FF" x="349" y="70" width="11" height="11"></rect>
                    <rect id="Rectangle-9" fill="#D8D8D8" x="209" y="140" width="11" height="11"></rect>
                    <rect id="Rectangle-9" fill="#00C5FF" x="279" y="140" width="11" height="11"></rect>
                    <rect id="Rectangle-9" fill="#D8D8D8" x="349" y="140" width="11" height="11"></rect>
                    <rect id="Rectangle-9" fill="#EC3558" x="0" y="0" width="11" height="11"></rect>
                    <rect id="Rectangle-9" fill="#EC3558" x="70" y="0" width="11" height="11"></rect>
                    <rect id="Rectangle-9" fill="#D8D8D8" x="0" y="70" width="11" height="11"></rect>
                    <rect id="Rectangle-9" fill="#D8D8D8" x="70" y="70" width="11" height="11"></rect>
                    <rect id="Rectangle-9" fill="#D8D8D8" x="140" y="0" width="11" height="11"></rect>
                    <rect id="Rectangle-9" fill="#D8D8D8" x="140" y="70" width="11" height="11"></rect>
                    <rect id="Rectangle-9" fill="#D8D8D8" x="0" y="140" width="11" height="11"></rect>
                    <rect id="Rectangle-9" fill="#D8D8D8" x="70" y="140" width="11" height="11"></rect>
                    <rect id="Rectangle-9" fill="#D8D8D8" x="140" y="140" width="11" height="11"></rect>
                    <rect id="Rectangle-9" fill="#00C5FF" x="209" y="210" width="11" height="11"></rect>
                    <rect id="Rectangle-9" fill="#D8D8D8" x="279" y="210" width="11" height="11"></rect>
                    <rect id="Rectangle-9" fill="#00C5FF" x="349" y="210" width="11" height="11"></rect>
                    <rect id="Rectangle-9" fill="#D8D8D8" x="0" y="210" width="11" height="11"></rect>
                    <rect id="Rectangle-9" fill="#D8D8D8" x="70" y="210" width="11" height="11"></rect>
                    <rect id="Rectangle-9" fill="#D8D8D8" x="140" y="210" width="11" height="11"></rect>
                    <path d="M214.368421,75.3684211 L353.639376,214.639376" id="Line-4" stroke="#03C0F8" stroke-linecap="square"></path>
                    <path d="M214.368421,75.3684211 L353.639376,214.639376" id="Line-4" stroke="#03C0F8" stroke-linecap="square" transform="translate(284.000000, 145.000000) scale(-1, 1) translate(-284.000000, -145.000000) "></path>
                    <path d="M5.65820313,4.43554687 L5.65820313,40.7421875 C5.93746356,64.0989583 17.6213646,75.7773438 40.7099063,75.7773438 C63.7984479,75.7773438 75.4840727,63.8713596 75.7667805,40.0593914 L75.7667805,5.36929894" id="Path-7" stroke="#EC3558"></path>
                </g>
                <g id="Group-2" opacity="0.100000001" transform="translate(94.000000, 473.000000)" fill="#FFFFFF">
                    <rect id="Rectangle-9" x="96" y="0" width="5" height="5"></rect>
                    <rect id="Rectangle-9" x="128" y="0" width="5" height="5"></rect>
                    <rect id="Rectangle-9" x="96" y="32" width="5" height="5"></rect>
                    <rect id="Rectangle-9" x="128" y="32" width="5" height="5"></rect>
                    <rect id="Rectangle-9" x="160" y="0" width="5" height="5"></rect>
                    <rect id="Rectangle-9" x="160" y="32" width="5" height="5"></rect>
                    <rect id="Rectangle-9" x="96" y="64" width="5" height="5"></rect>
                    <rect id="Rectangle-9" x="128" y="64" width="5" height="5"></rect>
                    <rect id="Rectangle-9" x="160" y="64" width="5" height="5"></rect>
                    <rect id="Rectangle-9" x="0" y="0" width="5" height="5"></rect>
                    <rect id="Rectangle-9" x="32" y="0" width="5" height="5"></rect>
                    <rect id="Rectangle-9" x="0" y="32" width="5" height="5"></rect>
                    <rect id="Rectangle-9" x="32" y="32" width="5" height="5"></rect>
                    <rect id="Rectangle-9" x="64" y="0" width="5" height="5"></rect>
                    <rect id="Rectangle-9" x="64" y="32" width="5" height="5"></rect>
                    <rect id="Rectangle-9" x="0" y="64" width="5" height="5"></rect>
                    <rect id="Rectangle-9" x="32" y="64" width="5" height="5"></rect>
                    <rect id="Rectangle-9" x="64" y="64" width="5" height="5"></rect>
                    <rect id="Rectangle-9" x="96" y="96" width="5" height="5"></rect>
                    <rect id="Rectangle-9" x="128" y="96" width="5" height="5"></rect>
                    <rect id="Rectangle-9" x="160" y="96" width="5" height="5"></rect>
                    <rect id="Rectangle-9" x="0" y="96" width="5" height="5"></rect>
                    <rect id="Rectangle-9" x="32" y="96" width="5" height="5"></rect>
                    <rect id="Rectangle-9" x="64" y="96" width="5" height="5"></rect>
                    <rect id="Rectangle-9" x="288" y="0" width="5" height="5"></rect>
                    <rect id="Rectangle-9" x="320" y="0" width="5" height="5"></rect>
                    <rect id="Rectangle-9" x="288" y="32" width="5" height="5"></rect>
                    <rect id="Rectangle-9" x="320" y="32" width="5" height="5"></rect>
                    <rect id="Rectangle-9" x="352" y="0" width="5" height="5"></rect>
                    <rect id="Rectangle-9" x="352" y="32" width="5" height="5"></rect>
                    <rect id="Rectangle-9" x="288" y="64" width="5" height="5"></rect>
                    <rect id="Rectangle-9" x="320" y="64" width="5" height="5"></rect>
                    <rect id="Rectangle-9" x="352" y="64" width="5" height="5"></rect>
                    <rect id="Rectangle-9" x="192" y="0" width="5" height="5"></rect>
                    <rect id="Rectangle-9" x="224" y="0" width="5" height="5"></rect>
                    <rect id="Rectangle-9" x="192" y="32" width="5" height="5"></rect>
                    <rect id="Rectangle-9" x="224" y="32" width="5" height="5"></rect>
                    <rect id="Rectangle-9" x="256" y="0" width="5" height="5"></rect>
                    <rect id="Rectangle-9" x="256" y="32" width="5" height="5"></rect>
                    <rect id="Rectangle-9" x="192" y="64" width="5" height="5"></rect>
                    <rect id="Rectangle-9" x="224" y="64" width="5" height="5"></rect>
                    <rect id="Rectangle-9" x="256" y="64" width="5" height="5"></rect>
                    <rect id="Rectangle-9" x="288" y="96" width="5" height="5"></rect>
                    <rect id="Rectangle-9" x="320" y="96" width="5" height="5"></rect>
                    <rect id="Rectangle-9" x="352" y="96" width="5" height="5"></rect>
                    <rect id="Rectangle-9" x="192" y="96" width="5" height="5"></rect>
                    <rect id="Rectangle-9" x="224" y="96" width="5" height="5"></rect>
                    <rect id="Rectangle-9" x="256" y="96" width="5" height="5"></rect>
                    <rect id="Rectangle-9" x="96" y="129" width="5" height="5"></rect>
                    <rect id="Rectangle-9" x="128" y="129" width="5" height="5"></rect>
                    <rect id="Rectangle-9" x="96" y="160" width="5" height="5"></rect>
                    <rect id="Rectangle-9" x="128" y="160" width="5" height="5"></rect>
                    <rect id="Rectangle-9" x="160" y="129" width="5" height="5"></rect>
                    <rect id="Rectangle-9" x="160" y="160" width="5" height="5"></rect>
                    <rect id="Rectangle-9" x="96" y="193" width="5" height="5"></rect>
                    <rect id="Rectangle-9" x="128" y="193" width="5" height="5"></rect>
                    <rect id="Rectangle-9" x="160" y="193" width="5" height="5"></rect>
                    <rect id="Rectangle-9" x="0" y="129" width="5" height="5"></rect>
                    <rect id="Rectangle-9" x="32" y="129" width="5" height="5"></rect>
                    <rect id="Rectangle-9" x="0" y="160" width="5" height="5"></rect>
                    <rect id="Rectangle-9" x="32" y="160" width="5" height="5"></rect>
                    <rect id="Rectangle-9" x="64" y="129" width="5" height="5"></rect>
                    <rect id="Rectangle-9" x="64" y="160" width="5" height="5"></rect>
                    <rect id="Rectangle-9" x="0" y="193" width="5" height="5"></rect>
                    <rect id="Rectangle-9" x="32" y="193" width="5" height="5"></rect>
                    <rect id="Rectangle-9" x="64" y="193" width="5" height="5"></rect>
                    <rect id="Rectangle-9" x="96" y="225" width="5" height="5"></rect>
                    <rect id="Rectangle-9" x="128" y="225" width="5" height="5"></rect>
                    <rect id="Rectangle-9" x="160" y="225" width="5" height="5"></rect>
                    <rect id="Rectangle-9" x="0" y="225" width="5" height="5"></rect>
                    <rect id="Rectangle-9" x="32" y="225" width="5" height="5"></rect>
                    <rect id="Rectangle-9" x="64" y="225" width="5" height="5"></rect>
                    <rect id="Rectangle-9" x="288" y="129" width="5" height="5"></rect>
                    <rect id="Rectangle-9" x="320" y="129" width="5" height="5"></rect>
                    <rect id="Rectangle-9" x="288" y="160" width="5" height="5"></rect>
                    <rect id="Rectangle-9" x="320" y="160" width="5" height="5"></rect>
                    <rect id="Rectangle-9" x="352" y="129" width="5" height="5"></rect>
                    <rect id="Rectangle-9" x="352" y="160" width="5" height="5"></rect>
                    <rect id="Rectangle-9" x="288" y="193" width="5" height="5"></rect>
                    <rect id="Rectangle-9" x="320" y="193" width="5" height="5"></rect>
                    <rect id="Rectangle-9" x="352" y="193" width="5" height="5"></rect>
                    <rect id="Rectangle-9" x="192" y="129" width="5" height="5"></rect>
                    <rect id="Rectangle-9" x="224" y="129" width="5" height="5"></rect>
                    <rect id="Rectangle-9" x="192" y="160" width="5" height="5"></rect>
                    <rect id="Rectangle-9" x="224" y="160" width="5" height="5"></rect>
                    <rect id="Rectangle-9" x="256" y="129" width="5" height="5"></rect>
                    <rect id="Rectangle-9" x="256" y="160" width="5" height="5"></rect>
                    <rect id="Rectangle-9" x="192" y="193" width="5" height="5"></rect>
                    <rect id="Rectangle-9" x="224" y="193" width="5" height="5"></rect>
                    <rect id="Rectangle-9" x="256" y="193" width="5" height="5"></rect>
                    <rect id="Rectangle-9" x="288" y="225" width="5" height="5"></rect>
                    <rect id="Rectangle-9" x="320" y="225" width="5" height="5"></rect>
                    <rect id="Rectangle-9" x="352" y="225" width="5" height="5"></rect>
                    <rect id="Rectangle-9" x="192" y="225" width="5" height="5"></rect>
                    <rect id="Rectangle-9" x="224" y="225" width="5" height="5"></rect>
                    <rect id="Rectangle-9" x="256" y="225" width="5" height="5"></rect>
                </g>
                <path d="M81.1565679,287.5 L133.740384,287.5" id="Line-6" stroke="#F57BA3" stroke-linecap="square"></path>
                <g id="Group-4" transform="translate(141.000000, 260.000000)">
                    <polygon id="Rectangle-11" fill="#CC787B" points="211.288574 60.6103516 246.721191 41.1191406 240.388184 542.005859 206.505859 522.439453"></polygon>
                    <polygon id="Path-58" fill="#F5B0B3" points="469.008545 409.380859 469.008545 370.329102 280.792969 478.655273 280.792969 20.3011475 71.6554565 140.968262 106.379883 161.007202 246.224609 80.3088379 239.318359 542.649902"></polygon>
                    <polygon id="Path-56" fill="#B7676B" points="1.53271484 141.138672 0.818847656 181.880371 398.027832 411.567871 399.154297 371.015625"></polygon>
                    <polygon id="Path-59" fill="#FCC9CB" points="280.455078 479.055664 469.010742 370.352295 71.7348633 140.967773 280.79335 20.304245 246.352539 0.353515625 1.62548828 141.21875 398.879395 370.816895 280.455078 439.09082"></polygon>
                </g>
                <path d="M570.947737,320.803854 L593.434672,333.340122 C595.018382,334.223026 596,335.894125 596,337.707315 L596,398.016775 C596,400.778199 593.761424,403.016775 591,403.016775 C590.106629,403.016775 589.229574,402.777416 588.460057,402.323594 L567.460057,389.93886 C565.935602,389.039814 565,387.401857 565,385.632041 L565,324.297609 C565,322.08847 566.790861,320.297609 569,320.297609 C569.68178,320.297609 570.352245,320.471872 570.947737,320.803854 Z" id="Rectangle-8" fill="#FFFFFF"></path>
                <path d="M571.479761,325.673734 L590.379843,336.390703 C591.945828,337.278668 592.913574,338.939911 592.913574,340.740131 L592.913574,390.019586 C592.913574,391.67644 591.570428,393.019586 589.913574,393.019586 C589.370571,393.019586 588.837749,392.872208 588.371927,392.593168 L569.430588,381.246781 C567.922822,380.343587 567,378.715067 567,376.957478 L567,328.28339 C567,326.626536 568.343146,325.28339 570,325.28339 C570.518705,325.28339 571.028547,325.417881 571.479761,325.673734 Z" id="Rectangle-8" fill="#50E3C2"></path>
                <path d="M556.70427,330.240574 C556.183214,329.950089 555.596557,329.797609 555,329.797609 C553.067003,329.797609 551.5,331.364612 551.5,333.297609 L551.5,394.632041 C551.5,396.224875 552.342041,397.699036 553.714051,398.508178 L574.714051,410.892912 C575.406617,411.301352 576.195966,411.516775 577,411.516775 C579.485281,411.516775 581.5,409.502057 581.5,407.016775 L581.5,346.707315 C581.5,345.075444 580.616544,343.571455 579.191204,342.776841 L556.70427,330.240574 Z" id="Rectangle-8" stroke="#AAF6E5"></path>
                <path d="M539.70427,345.240574 C539.183214,344.950089 538.596557,344.797609 538,344.797609 C536.067003,344.797609 534.5,346.364612 534.5,348.297609 L534.5,409.632041 C534.5,411.224875 535.342041,412.699036 536.714051,413.508178 L557.714051,425.892912 C558.406617,426.301352 559.195966,426.516775 560,426.516775 C562.485281,426.516775 564.5,424.502057 564.5,422.016775 L564.5,361.707315 C564.5,360.075444 563.616544,358.571455 562.191204,357.776841 L539.70427,345.240574 Z" id="Rectangle-8" stroke="#AAF6E5" opacity="0.200000003"></path>
                <path d="M304,337 L478.008153,435.595956" id="Line-5" stroke="#FFFFFF" opacity="0.100000001" stroke-linecap="square"></path>
                <path d="M558,495.804044 L732.008153,594.4" id="Line-5" stroke="#FFFFFF" opacity="0.100000001" stroke-linecap="square"></path>
                <ellipse id="Oval-14" fill="#000000" opacity="0.100000001" transform="translate(362.500000, 646.500000) rotate(17.000000) translate(-362.500000, -646.500000) " cx="362.5" cy="646.5" rx="8.5" ry="14.5"></ellipse>
                <g id="Group-6" transform="translate(492.000000, 591.000000)">
                    <path d="M12.4041514,89.2800562 C16.5819405,91.9533931 19,86.7550751 19,80.7076054 C19,74.6601357 18.9106489,71.9695785 15.1082363,69.2077075 C11.3058237,66.4458365 8.86058698,68.5329695 8.21410172,74.3236983 C7.56761646,80.1144272 8.22636223,86.6067192 12.4041514,89.2800562 Z" id="Oval-5" fill="#000000" opacity="0.100000001" transform="translate(13.500000, 79.000000) rotate(-71.000000) translate(-13.500000, -79.000000) "></path>
                    <g id="Group-5">
                        <path d="M16.1337373,78.0608846 C16.2641915,78.5911733 16.2693069,79.0469782 16.1490835,79.4282994 C15.9687483,80.0002813 15.5343717,80.7879082 14.5558312,82.0971816 C13.7495907,83.17592 13.381644,84.5480852 13.5156501,85.2254716 C13.6496561,85.9028581 15.0809477,85.7630248 16.3807823,84.968994 C17.2473388,84.4396402 18.5268895,83.0098607 20.2194344,80.6796556 L18.8352916,77.0855509 L16.1337373,78.0608846 Z" id="Path-61" fill="#4A4A4A" transform="translate(16.854050, 81.372262) rotate(14.000000) translate(-16.854050, -81.372262) "></path>
                        <path d="M4.99364632,72.7635873 C4.99645671,73.3467719 4.93775018,73.8290247 4.81752675,74.2103459 C4.6371916,74.7823277 4.24406502,75.5673384 3.2655245,76.8766118 C2.459284,77.9553502 2.09133731,79.3275153 2.22534339,80.0049018 C2.35934947,80.6822883 3.79064099,80.542455 5.09047567,79.7484242 C5.95703213,79.2190704 7.23658283,77.7892909 8.92912778,75.4590857 L7.84723264,71.917768 L4.99364632,72.7635873 Z" id="Path-61" fill="#4A4A4A" transform="translate(5.563743, 76.178085) rotate(19.000000) translate(-5.563743, -76.178085) "></path>
                        <path d="M5.81663683,20.8324219 C6.00292922,23.0690159 6.09653086,24.6567227 6.09744177,25.5955424 C6.09880812,27.003772 6.34525553,34.3681152 5.81663683,36.1252136 C5.28801812,37.882312 5.25592719,39.1852234 5.45482042,39.8827881 C5.65371365,40.5803528 6.55671956,41.0391418 6.8000206,41.0391418 C7.15672362,41.0391418 7.14213233,38.075121 7.30445692,38.8022797 C7.72287326,40.6766418 7.74964158,36.6586363 7.72287326,36.4038147 C7.68126085,36.0076843 8.34847005,21.8972656 8.30685764,20.8324219 C8.27911603,20.122526 7.44904243,20.122526 5.81663683,20.8324219 Z" id="Path-57" fill="#DCBA9B"></path>
                        <path d="M5.45728895,72.9769318 C5.71201805,67.0019948 5.8393826,62.0221924 5.8393826,58.0375244 C5.8393826,54.0528564 6.29570855,46.7916463 7.20836046,36.253894 L20.9704319,36.8532227 C19.9541016,50.251292 19.4459364,58.1754334 19.4459364,60.625647 C19.4459364,64.6287231 19.645388,70.4913228 20.0442912,78.213446 C19.7213248,78.4903361 19.1047793,78.6631785 18.1946547,78.7319733 C17.2845301,78.800768 16.609592,78.6933278 16.1698405,78.4096527 C15.20165,70.5643478 14.5215104,64.6363459 14.1294217,60.625647 C13.4682075,53.8620483 13.5828179,46.0891846 12.9561632,46.0891846 C12.5604926,46.0891846 11.2849664,54.3587158 10.7824436,58.4701172 C10.4474284,61.2110514 9.90714292,66.1799388 9.16158719,73.3767792 C8.71819164,73.6183278 8.10379141,73.6885091 7.3183865,73.587323 C6.53298159,73.4861369 5.91261574,73.2826731 5.45728895,72.9769318 Z" id="Path-52" fill="#4A90E2"></path>
                        <path d="M10.7937283,11.9883423 C11.7465233,11.7972982 12.2743191,11.6140422 12.3771159,11.4385742 C12.4799127,11.2631063 12.587,10.695874 12.6983778,9.73687744 L17.0698853,9.73687744 C17.1830263,10.6823039 17.27398,11.2495361 17.3427463,11.4385742 C17.4115126,11.6276123 18.1793439,11.8454427 19.6462402,12.0920654 C18.3028881,15.403182 16.6730686,17.0306559 14.7567817,16.9744873 C12.8404948,16.9183187 11.519477,15.2562703 10.7937283,11.9883423 Z" id="Path-60" fill="#DCBA9B"></path>
                        <path d="M6.97455512,36.1425598 C6.73757595,35.2918884 7.54874755,27.7953247 7.54874755,21.8147827 C6.22767497,21.6181925 5.5018401,21.2655457 5.37124295,20.756842 C5.19727822,20.0792125 5.85772027,14.8688721 6.97455512,13.685791 C8.0799837,12.5147928 9.63475206,11.9713501 12.0184733,11.6067261 C11.8884051,13.7537008 12.6188558,14.862382 14.2098253,14.9327698 C15.8007948,15.0031576 16.9860433,13.8944763 17.7655707,11.6067261 C20.519043,12.1382039 22.4953975,12.7231364 23.6946343,13.3615234 C25.4934896,14.319104 26.7451299,22.8569702 26.3624132,25.4380127 C25.9632749,25.9398132 24.5405771,26.0724467 22.0943197,25.8359131 L21.5796305,36.9457947 C19.8806921,38.0885193 17.3155924,38.5815877 13.8843316,38.425 C8.73744032,38.1901184 7.21153429,36.9932312 6.97455512,36.1425598 Z" id="Path-54" fill="#FFFFFF"></path>
                        <path d="M22.7299869,25.85046 C22.6148049,27.9328006 22.4900411,29.4103049 22.3556956,30.2829727 C22.1541774,31.5919745 20.639572,38.0018619 20.3234558,38.6681653 C19.9930361,39.3646174 19.9175698,39.3261911 19.0939492,39.9652422 C18.5817369,40.3626701 18.1311452,41.4096527 18.0468533,41.8620139 C17.975008,42.2475787 18.297117,42.316197 18.3987842,42.0794115 C18.714627,41.3438053 18.8045112,41.2513284 18.9309209,41.2602018 C19.0101306,41.265762 18.8066479,41.842936 18.4999653,42.4037219 C18.3172168,42.7378877 18.1511043,42.8768169 18.0935623,43.0824912 C17.9394554,43.6333212 18.9138694,44.0986427 19.9560003,43.943235 C20.9981312,43.7878272 21.8617723,41.9136016 22.2560201,39.2404618 C22.650268,36.567322 24.6865503,33.5665171 25.320613,31.2395825 C25.7433214,29.6882928 26.0844683,27.9532758 26.3440535,26.0345314 C25.9263643,26.1191685 25.3605423,26.1364287 24.6465875,26.0863121 C23.9326327,26.0361955 23.2937658,25.9575781 22.7299869,25.85046 Z" id="Path-53" fill="#DCBA9B" transform="translate(22.190278, 34.912011) rotate(-4.000000) translate(-22.190278, -34.912011) "></path>
                        <path d="M9.87028401,4.27437457 C9.56245216,6.32704305 11.1652137,9.93549521 12.2498248,10.5367135 C13.3344358,11.1379317 16.4261098,10.5251422 17.1543612,9.7229948 C17.8826126,8.92084745 18.7214449,7.416576 18.7214449,5.6247867 C18.7214449,3.8329974 16.6374346,0.640195962 13.9035563,0.793859153 C11.169678,0.947522345 10.1781159,2.22170609 9.87028401,4.27437457 Z" id="Path-62" fill="#E7C6A8"></path>
                        <path d="M9.68641951,5.03405994 C12.3724185,4.84077381 14.2951118,4.49036894 15.4544995,3.98284534 C15.7127031,5.24552508 16.1978286,6.0447479 16.909876,6.3805138 C17.3141513,5.76640864 17.7241003,5.67783825 18.139723,6.11480263 C18.5553457,6.55176701 18.386967,7.53892472 17.6345871,9.07627575 C18.3870059,8.22688757 18.8255751,7.14144519 18.9502948,5.81994861 C19.1373744,3.83770374 19.396164,0.235359987 14.3788707,0.0093284926 C11.0340085,-0.14135917 9.46985814,1.53355131 9.68641951,5.03405994 Z" id="Path-63" fill="#4A4A4A"></path>
                    </g>
                </g>
                <g id="Group-6" transform="translate(331.000000, 230.000000)">
                    <path d="M12.4041514,86.2473314 C16.5819405,89.0421837 19,83.6075785 19,77.2852238 C19,70.9628691 18.9106489,68.1500139 15.1082363,65.2626033 C11.3058237,62.3751927 8.86058698,64.5571954 8.21410172,70.6111392 C7.56761646,76.665083 8.22636223,83.4524792 12.4041514,86.2473314 Z" id="Oval-5" fill="#000000" opacity="0.100000001" transform="translate(13.500000, 75.500000) rotate(-71.000000) translate(-13.500000, -75.500000) "></path>
                    <g id="Group-5" transform="translate(2.000000, 0.000000)">
                        <path d="M16.0650442,74.327207 C16.2035264,74.8692509 16.2089566,75.3351599 16.0813348,75.724934 C15.8899021,76.3095952 15.4287946,77.1146819 14.3900362,78.4529786 C13.5341809,79.5556299 13.1435913,80.9582125 13.2858439,81.650615 C13.4280965,82.3430174 14.9474675,82.2000843 16.327292,81.3884519 C17.247175,80.8473636 18.6054673,79.3858895 20.4021689,77.0040296 L18.932848,73.3302526 L16.0650442,74.327207 Z" id="Path-61" fill="#8B572A" transform="translate(16.829684, 77.711989) rotate(14.000000) translate(-16.829684, -77.711989) "></path>
                        <path d="M4.23940917,68.4480018 C4.24239251,69.0441141 4.18007327,69.5370573 4.05245147,69.9268314 C3.86101878,70.5114927 3.44369979,71.313905 2.40494139,72.6522017 C1.54908609,73.754853 1.15849653,75.1574356 1.30074914,75.8498381 C1.44300174,76.5422405 2.96237274,76.3993074 4.34219725,75.587675 C5.26208026,75.0465867 6.62037254,73.5851126 8.41707411,71.2032526 L7.26860081,67.5834328 L4.23940917,68.4480018 Z" id="Path-61" fill="#8B572A" transform="translate(4.844589, 71.938191) rotate(19.000000) translate(-4.844589, -71.938191) "></path>
                        <path d="M5.41113049,20.8520421 C5.41016353,23.4330039 5.41016353,25.2033003 5.41113049,26.1629313 C5.41258093,27.6023778 5.2901123,34.9398172 4.72896322,36.735866 C4.16781413,38.5319148 4.5178304,38.9494008 4.72896322,39.6624287 C4.94009603,40.3754567 5.83384442,40.9567406 6.09211784,40.9567406 C6.47077181,40.9567406 6.25051606,37.7145177 6.42282986,38.4577956 C6.8669949,40.3737077 7.13658854,38.9226539 7.13658854,37.2107958 C7.13658854,35.4989377 7.80068359,22.382673 7.75651042,21.2942243 C7.72706163,20.5685919 6.94526832,20.4211978 5.41113049,20.8520421 Z" id="Path-57" fill="#DCBA9B"></path>
                        <path d="M7.32401259,13.3679926 C5.95456091,13.8863244 5.17483362,14.6820756 4.98483073,15.7552461 C4.69982639,17.3650019 4.90848043,20.4155513 4.98483073,25.467817 C5.06118103,30.5200828 4.68160807,34.5483544 4.68160807,35.6845674 C4.68160807,36.8207804 6.95265842,36.3334874 7.32401259,36.3564046 C7.57158203,36.3716828 7.85067998,32.4213121 8.16130642,24.5052926 L7.32401259,13.3679926 Z" id="Path-55" fill="#DDDDDD"></path>
                        <path d="M4.6,68.6620952 C4.87040473,62.5547089 5.0056071,57.4645168 5.0056071,53.3915187 C5.0056071,49.3185207 5.49001465,41.8963478 6.45882975,31.125 L21.0677979,31.7376142 C19.9889242,45.4326851 19.4494873,53.5324848 19.4494873,56.0370135 C19.4494873,60.1288278 19.6612128,66.1213866 20.0846639,74.0146899 C19.7418226,74.2977179 19.0873359,74.4743918 18.1212036,74.5447115 C17.1550713,74.6150313 16.4385986,74.5052094 15.9717855,74.2152459 C14.9440141,66.1960304 14.2220197,60.1366195 13.8058024,56.0370135 C13.1038981,49.1234828 13.2255615,41.1783142 12.5603434,41.1783142 C12.1403239,41.1783142 10.7863037,49.6311602 10.2528564,53.833701 C9.89722493,56.6353949 9.32369113,61.7144299 8.53225505,69.0708062 C8.06157362,69.3177094 7.40936415,69.3894464 6.57562663,69.2860173 C5.74188911,69.1825881 5.0833469,68.9746141 4.6,68.6620952 Z" id="Path-52" fill="#9B9B9B"></path>
                        <path d="M9.2,12.6763742 C10.4805854,12.3349675 11.1754395,12.0745853 11.2845622,11.8952277 C11.3936849,11.7158701 11.4839966,11.2091275 11.5554972,10.375 L15.4390245,10.4413997 C15.4762722,10.9151837 15.5313951,11.2486899 15.6043932,11.4419185 C15.6773912,11.6351471 16.5283072,11.8635959 18.1571411,12.1272648 C17.0245483,15.948535 15.4411458,17.8304632 13.4069336,17.7730495 C11.3727214,17.7156358 9.97041016,16.016744 9.2,12.6763742 Z" id="Path-60" fill="#DCBA9B"></path>
                        <path d="M6.08716363,33.3476112 C5.8534451,32.687112 6.34222005,28.4005011 6.34222005,22.2873855 C6.34222005,18.2119751 6.45429597,15.3349156 6.67844781,13.6562071 C7.94570222,13.0771245 9.33526476,12.5477561 10.8471354,12.0681022 C10.9609791,13.919856 11.737878,14.87253 13.177832,14.9261242 C14.6177861,14.9797184 15.6704554,13.8777606 16.3358398,11.6202509 C18.9510001,12.2189137 20.8490533,12.7479001 22.0299995,13.20721 C23.8014187,13.8961748 21.5735433,19.5023971 21.2166016,25.4485183 C20.8596598,31.3946395 21.310064,33.9048622 21.0335449,34.3241272 C20.7570258,34.7433922 19.2518934,36.4756346 13.7882704,36.2355463 C8.32464735,35.995458 6.32088216,34.0081104 6.08716363,33.3476112 Z" id="Path-54" fill="#FFFFFF"></path>
                        <path d="M8.19538979,5.18574207 C8.08686766,6.3315105 8.23470135,7.39597819 8.7612418,8.72527082 C9.20569828,9.84733603 10.0443267,10.8291399 10.5033935,11.1104373 C11.5063094,11.724983 13.9670257,11.2145242 15.0031627,10.7875471 C15.5184145,9.2648384 15.6798603,8.4312121 15.8373063,6.76890965 C15.9947522,5.1066072 13.8912014,1.67448786 11.505568,1.85068761 C9.11993474,2.02688737 8.38372761,3.19728578 8.19538979,5.18574207 Z" id="Path-62" fill="#E7C6A8" transform="translate(12.003815, 6.619448) rotate(-6.000000) translate(-12.003815, -6.619448) "></path>
                        <path d="M7.66138251,6.21081458 C8.20662626,5.85949989 8.61650668,5.68477565 8.89102375,5.68664185 C10.1812445,5.69541294 10.1085166,6.45460135 11.7685671,5.48464345 C13.4855577,4.48141573 13.4260314,6.49484654 14.55983,7.00966001 C14.8989404,6.4902582 15.2165264,6.41827141 15.5125879,6.79369962 C15.8086494,7.16912784 15.6080662,8.5044446 14.9108385,10.7996499 C15.8022593,9.30356753 16.3141671,7.88013092 16.4465618,6.52934008 C16.6451539,4.50315382 16.6939302,0.64666759 11.9154121,0.495851898 C9.7533245,0.427613854 7.85121319,1.35634328 7.25860141,3.79932595 C7.12838458,4.33613179 7.26264495,5.13996133 7.66138251,6.21081458 Z" id="Path-63" fill="#4A4A4A" transform="translate(11.861257, 5.646010) rotate(-6.000000) translate(-11.861257, -5.646010) "></path>
                    </g>
                    <polygon id="Path-6" fill="#4A4A4A" points="8 17 9.75008638 17.466427 10 20 8.29563515 19.8602094"></polygon>
                    <path d="M20.9715404,19.6025368 C20.4685153,20.5508384 19.975731,21.1515072 19.4931875,21.4045433 C18.7693722,21.7840974 12.0723085,19.4594169 11.8243941,19.35233 C11.5764796,19.2452431 11.5666704,18.1633004 10.9007466,18.0215779 C10.1330604,17.8581983 11.0789719,18.6704778 10.7093813,18.8489133 C10.3428379,19.0258776 8.49731267,17.8624921 8.33383543,18.0215779 C7.83160339,18.5103186 7.83678116,19.4946281 8.76062141,20.0665958 C9.05922383,20.2514665 9.7725989,20.4820599 10.9007466,20.7583762 C15.7887338,23.0528718 18.990829,24.129295 20.5070321,23.9876457 C22.0232352,23.8459965 23.1875578,22.6371047 24,20.3609704 L20.9715404,19.6025368 Z" id="Path-5" fill="#DCBA9B"></path>
                    <path d="M10.9776994,20.8323016 C10.3419622,21.1395146 9.8709889,21.8109442 10.0317028,22.5690921 C10.0317028,22.8886155 17.3283323,25.769282 19.2081028,25.9672951 C21.0878732,26.1653082 22.0597768,25.4643293 22.7913042,23.8597992 C23.5228315,22.2552691 25,17.6838229 25,15.1059866 C25,12.5281503 21.6267381,12.4939923 21.0652409,14.0468718 C20.7589871,14.8938488 20.4802323,16.8667234 20.3022949,18.9198914 C20.1495584,20.6822729 19.8624502,21.9583818 18.8300969,22.438469 C17.8480407,22.895166 11.2414444,20.8323016 10.9776994,20.8323016 Z" id="Path-64" fill="#DDDDDD"></path>
                </g>
                <g id="Group-6" transform="translate(365.500000, 477.500000) scale(-1, 1) translate(-365.500000, -477.500000) translate(352.000000, 435.000000)">
                    <path d="M12.4041514,86.2473314 C16.5819405,89.0421837 19,83.6075785 19,77.2852238 C19,70.9628691 18.9106489,68.1500139 15.1082363,65.2626033 C11.3058237,62.3751927 8.86058698,64.5571954 8.21410172,70.6111392 C7.56761646,76.665083 8.22636223,83.4524792 12.4041514,86.2473314 Z" id="Oval-5" fill="#000000" opacity="0.100000001" transform="translate(13.500000, 75.500000) rotate(-71.000000) translate(-13.500000, -75.500000) "></path>
                    <g id="Group-5" transform="translate(2.000000, 0.000000)">
                        <path d="M16.0650442,74.327207 C16.2035264,74.8692509 16.2089566,75.3351599 16.0813348,75.724934 C15.8899021,76.3095952 15.4287946,77.1146819 14.3900362,78.4529786 C13.5341809,79.5556299 13.1435913,80.9582125 13.2858439,81.650615 C13.4280965,82.3430174 14.9474675,82.2000843 16.327292,81.3884519 C17.247175,80.8473636 18.6054673,79.3858895 20.4021689,77.0040296 L18.932848,73.3302526 L16.0650442,74.327207 Z" id="Path-61" fill="#3E2723" transform="translate(16.829684, 77.711989) rotate(14.000000) translate(-16.829684, -77.711989) "></path>
                        <path d="M4.23940917,68.4480018 C4.24239251,69.0441141 4.18007327,69.5370573 4.05245147,69.9268314 C3.86101878,70.5114927 3.44369979,71.313905 2.40494139,72.6522017 C1.54908609,73.754853 1.15849653,75.1574356 1.30074914,75.8498381 C1.44300174,76.5422405 2.96237274,76.3993074 4.34219725,75.587675 C5.26208026,75.0465867 6.62037254,73.5851126 8.41707411,71.2032526 L7.26860081,67.5834328 L4.23940917,68.4480018 Z" id="Path-61" fill="#3E2723" transform="translate(4.844589, 71.938191) rotate(19.000000) translate(-4.844589, -71.938191) "></path>
                        <path d="M5.41113049,20.8520421 C5.41016353,23.4330039 5.41016353,25.2033003 5.41113049,26.1629313 C5.41258093,27.6023778 5.2901123,34.9398172 4.72896322,36.735866 C4.16781413,38.5319148 4.5178304,38.9494008 4.72896322,39.6624287 C4.94009603,40.3754567 5.83384442,40.9567406 6.09211784,40.9567406 C6.47077181,40.9567406 6.25051606,37.7145177 6.42282986,38.4577956 C6.8669949,40.3737077 7.13658854,38.9226539 7.13658854,37.2107958 C7.13658854,35.4989377 7.80068359,22.382673 7.75651042,21.2942243 C7.72706163,20.5685919 6.94526832,20.4211978 5.41113049,20.8520421 Z" id="Path-57" fill="#DCBA9B"></path>
                        <path d="M7.32401259,13.3679926 C5.95456091,13.8863244 5.17483362,14.6820756 4.98483073,15.7552461 C4.69982639,17.3650019 4.90848043,20.4155513 4.98483073,25.467817 C5.06118103,30.5200828 4.68160807,34.5483544 4.68160807,35.6845674 C4.68160807,36.8207804 6.95265842,36.3334874 7.32401259,36.3564046 C7.57158203,36.3716828 7.85067998,32.4213121 8.16130642,24.5052926 L7.32401259,13.3679926 Z" id="Path-55" fill="#0097A7"></path>
                        <path d="M4.6,68.6620952 C4.87040473,62.5547089 5.0056071,57.4645168 5.0056071,53.3915187 C5.0056071,49.3185207 5.49001465,41.8963478 6.45882975,31.125 L21.0677979,31.7376142 C19.9889242,45.4326851 19.4494873,53.5324848 19.4494873,56.0370135 C19.4494873,60.1288278 19.6612128,66.1213866 20.0846639,74.0146899 C19.7418226,74.2977179 19.0873359,74.4743918 18.1212036,74.5447115 C17.1550713,74.6150313 16.4385986,74.5052094 15.9717855,74.2152459 C14.9440141,66.1960304 14.2220197,60.1366195 13.8058024,56.0370135 C13.1038981,49.1234828 13.2255615,41.1783142 12.5603434,41.1783142 C12.1403239,41.1783142 10.7863037,49.6311602 10.2528564,53.833701 C9.89722493,56.6353949 9.32369113,61.7144299 8.53225505,69.0708062 C8.06157362,69.3177094 7.40936415,69.3894464 6.57562663,69.2860173 C5.74188911,69.1825881 5.0833469,68.9746141 4.6,68.6620952 Z" id="Path-52" fill="#795548"></path>
                        <path d="M9.2,12.6763742 C10.4805854,12.3349675 11.1754395,12.0745853 11.2845622,11.8952277 C11.3936849,11.7158701 11.4839966,11.2091275 11.5554972,10.375 L15.4390245,10.4413997 C15.4762722,10.9151837 15.5313951,11.2486899 15.6043932,11.4419185 C15.6773912,11.6351471 16.5283072,11.8635959 18.1571411,12.1272648 C17.0245483,15.948535 15.4411458,17.8304632 13.4069336,17.7730495 C11.3727214,17.7156358 9.97041016,16.016744 9.2,12.6763742 Z" id="Path-60" fill="#DCBA9B"></path>
                        <path d="M6.08716363,33.3476112 C5.8534451,32.687112 6.34222005,28.4005011 6.34222005,22.2873855 C6.34222005,18.2119751 6.45429597,15.3349156 6.67844781,13.6562071 C7.94570222,13.0771245 9.33526476,12.5477561 10.8471354,12.0681022 C10.9609791,13.919856 11.737878,14.87253 13.177832,14.9261242 C14.6177861,14.9797184 15.6704554,13.8777606 16.3358398,11.6202509 C18.9510001,12.2189137 20.8490533,12.7479001 22.0299995,13.20721 C23.8014187,13.8961748 21.5735433,19.5023971 21.2166016,25.4485183 C20.8596598,31.3946395 21.310064,33.9048622 21.0335449,34.3241272 C20.7570258,34.7433922 19.2518934,36.4756346 13.7882704,36.2355463 C8.32464735,35.995458 6.32088216,34.0081104 6.08716363,33.3476112 Z" id="Path-54" fill="#00ACC1"></path>
                        <path d="M8.19538979,5.18574207 C8.08686766,6.3315105 8.23470135,7.39597819 8.7612418,8.72527082 C9.20569828,9.84733603 10.0443267,10.8291399 10.5033935,11.1104373 C11.5063094,11.724983 13.9670257,11.2145242 15.0031627,10.7875471 C15.5184145,9.2648384 15.6798603,8.4312121 15.8373063,6.76890965 C15.9947522,5.1066072 13.8912014,1.67448786 11.505568,1.85068761 C9.11993474,2.02688737 8.38372761,3.19728578 8.19538979,5.18574207 Z" id="Path-62" fill="#E7C6A8" transform="translate(12.003815, 6.619448) rotate(-6.000000) translate(-12.003815, -6.619448) "></path>
                        <path d="M7.66138251,6.21081458 C8.20662626,5.85949989 8.61650668,5.68477565 8.89102375,5.68664185 C10.1812445,5.69541294 10.1085166,6.45460135 11.7685671,5.48464345 C13.4855577,4.48141573 13.4260314,6.49484654 14.55983,7.00966001 C14.8989404,6.4902582 15.2165264,6.41827141 15.5125879,6.79369962 C15.8086494,7.16912784 15.6080662,8.5044446 14.9108385,10.7996499 C15.8022593,9.30356753 16.3141671,7.88013092 16.4465618,6.52934008 C16.6451539,4.50315382 16.6939302,0.64666759 11.9154121,0.495851898 C9.7533245,0.427613854 7.85121319,1.35634328 7.25860141,3.79932595 C7.12838458,4.33613179 7.26264495,5.13996133 7.66138251,6.21081458 Z" id="Path-63" fill="#4A4A4A" transform="translate(11.861257, 5.646010) rotate(-6.000000) translate(-11.861257, -5.646010) "></path>
                    </g>
                    <polygon id="Path-6" fill="#4A4A4A" points="8 18 9.75008638 18.466427 10 21 8.29563515 20.8602094"></polygon>
                    <path d="M19.9715404,21.6025368 C19.4685153,22.5508384 18.975731,23.1515072 18.4931875,23.4045433 C17.7693722,23.7840974 11.0723085,21.4594169 10.8243941,21.35233 C10.5764796,21.2452431 10.5666704,20.1633004 9.9007466,20.0215779 C9.13306039,19.8581983 10.0789719,20.6704778 9.70938128,20.8489133 C9.34283787,21.0258776 7.49731267,19.8624921 7.33383543,20.0215779 C6.83160339,20.5103186 6.83678116,21.4946281 7.76062141,22.0665958 C8.05922383,22.2514665 8.7725989,22.4820599 9.9007466,22.7583762 C14.7887338,25.0528718 17.990829,26.129295 19.5070321,25.9876457 C21.0232352,25.8459965 22.1875578,24.6371047 23,22.3609704 L19.9715404,21.6025368 Z" id="Path-5" fill="#DCBA9B"></path>
                    <path d="M10.9776994,20.8323016 C10.3419622,21.1395146 9.88664941,22.2665103 10.0473633,23.0246582 C10.0473633,23.4482418 16.9503264,25.9240572 18.8300969,26.1220703 C20.7098673,26.3200834 22.0597768,25.4643293 22.7913042,23.8597992 C23.5228315,22.2552691 25,17.6838229 25,15.1059866 C25,12.5281503 21.6267381,12.4939923 21.0652409,14.0468718 C20.7589871,14.8938488 20.4802323,16.8667234 20.3022949,18.9198914 C20.1495584,20.6822729 19.8624502,22.2335358 18.8300969,22.713623 C17.8480407,23.17032 11.2414444,20.8323016 10.9776994,20.8323016 Z" id="Path-64" fill="#0097A7"></path>
                </g>
                <g id="Group-6" transform="translate(192.992280, 495.482336) rotate(-145.000000) translate(-192.992280, -495.482336) translate(178.992280, 450.982336)">
                    <path d="M11.2997603,89.6946471 C15.4965288,92.3340327 17.9255734,87.2017334 17.9255734,81.2310667 C17.9255734,75.2604 17.8358164,72.6040129 14.0161297,69.8772178 C10.196443,67.1504226 7.74009767,69.2110489 7.09067547,74.9282354 C6.44125327,80.6454219 7.10299169,87.0552616 11.2997603,89.6946471 Z" id="Oval-5" fill="#000000" opacity="0.100000001" transform="translate(12.400587, 79.545148) rotate(-71.000000) translate(-12.400587, -79.545148) "></path>
                    <g id="Group-5" transform="translate(1.882893, 0.000000)">
                        <path d="M15.1023268,77.6004039 C15.2325103,78.1275645 15.237615,78.5806807 15.1176411,78.9597525 C14.9376803,79.5283602 14.5042052,80.3113409 13.5276957,81.6128909 C12.7231285,82.6852658 12.3559455,84.0493366 12.4896735,84.7227272 C12.6234014,85.3961178 14.0517223,85.2571093 15.3488591,84.4677625 C16.213617,83.9415313 17.490512,82.5201861 19.179544,80.2037268 L17.798274,76.6308238 L15.1023268,77.6004039 Z" id="Path-61" fill="#4A4A4A" transform="translate(15.821144, 80.892247) rotate(14.000000) translate(-15.821144, -80.892247) "></path>
                        <path d="M3.9853574,72.3343554 C3.98816195,72.9140998 3.92957728,73.3935078 3.80960337,73.7725796 C3.62964251,74.3411873 3.23733187,75.1215672 2.26082234,76.4231172 C1.45625521,77.4954921 1.08907221,78.8595629 1.22280016,79.5329535 C1.3565281,80.206344 2.78484894,80.0673356 4.08198578,79.2779888 C4.94674367,78.7517576 6.22363863,77.3304124 7.91267066,75.0139531 L6.83302102,71.4935256 L3.9853574,72.3343554 Z" id="Path-61" fill="#4A4A4A" transform="translate(4.554271, 75.728711) rotate(19.000000) translate(-4.554271, -75.728711) "></path>
                        <path d="M4.80663976,20.7095316 C4.9925455,22.9329319 5.08595287,24.5112729 5.08686189,25.4445545 C5.08822541,26.8444769 5.33416131,34.165378 4.80663976,35.9121112 C4.27911822,37.6588445 4.2470939,38.95407 4.44557432,39.6475198 C4.64405474,40.3409696 5.54518643,40.7970522 5.7879825,40.7970522 C6.14394517,40.7970522 6.12938416,37.8505161 6.29137185,38.5733853 C6.70891976,40.4366906 6.73563251,36.4423873 6.70891976,36.1890689 C6.66739371,35.7952752 7.3332181,21.7680938 7.29169205,20.7095316 C7.26400802,20.0038234 6.43565726,20.0038234 4.80663976,20.7095316 Z" id="Path-57" fill="#DCBA9B"></path>
                        <path d="M4.44803773,72.5464414 C4.70223813,66.6067505 4.82933832,61.6563239 4.82933832,57.6951615 C4.82933832,53.733999 5.28471716,46.5156227 6.19547484,36.0400326 L19.9289827,36.6358258 C18.9147618,49.95486 18.4076514,57.8322569 18.4076514,60.2680167 C18.4076514,64.2474788 18.606689,70.075495 19.0047642,77.7520655 C18.6824682,78.0273222 18.0672023,78.199145 17.1589667,78.2675339 C16.2507311,78.3359229 15.5771939,78.2291165 15.1383551,77.9471147 C14.1721741,70.1480893 13.4934462,64.2550566 13.1021712,60.2680167 C12.4423294,53.5443165 12.5567019,45.8173048 11.9313478,45.8173048 C11.5364985,45.8173048 10.2636196,54.0380541 9.76213985,58.1252024 C9.42781999,60.8499679 8.8886559,65.7895438 8.14464759,72.9439301 C7.70217232,73.1840538 7.0890473,73.2538211 6.30527252,73.1532319 C5.52149773,73.0526427 4.90241947,72.8503792 4.44803773,72.5464414 Z" id="Path-52" fill="#62CAB3"></path>
                        <path d="M9.77340115,11.9176231 C10.7242186,11.727706 11.250919,11.545531 11.3535024,11.3710981 C11.4560858,11.1966653 11.5629508,10.6327791 11.6740975,9.67943967 L16.0365318,9.67943967 C16.149438,10.619289 16.2402029,11.1831752 16.3088265,11.3710981 C16.37745,11.5590211 17.1436877,11.7755665 18.6075394,12.0207344 C17.2669755,15.3123187 15.6405387,16.9301922 13.7282291,16.8743549 C11.8159195,16.8185176 10.4976435,15.1662737 9.77340115,11.9176231 Z" id="Path-60" fill="#DCBA9B"></path>
                        <path d="M5.96215477,35.9293551 C5.72566746,35.0837018 6.53515545,27.6313603 6.53515545,21.6860975 C5.21682478,21.490667 4.4924964,21.1401004 4.36217031,20.6343976 C4.18856665,19.9607654 4.84763794,14.7811607 5.96215477,13.6050586 C7.065289,12.4409681 8.6168304,11.9007312 10.9956042,11.5382581 C10.8658059,13.6725678 11.5947405,14.7747089 13.1824079,14.8446815 C14.7700754,14.914654 15.9528638,13.8125129 16.7307733,11.5382581 C19.4785307,12.0666008 21.4507832,12.6480827 22.647531,13.2827039 C24.4426527,14.2346357 25.6916952,22.7221371 25.3097728,25.287954 C24.911463,25.7867945 23.491718,25.9186455 21.0505378,25.6835072 L20.5369169,36.7278517 C18.8415047,37.8638354 16.281729,38.3539952 12.8575898,38.1983312 C7.72138105,37.9648352 6.19864208,36.7750084 5.96215477,35.9293551 Z" id="Path-54" fill="#FFFFFF"></path>
                        <path d="M21.6848857,25.6979683 C21.5699428,27.7680252 21.4454379,29.2368137 21.3113713,30.1043337 C21.1102713,31.4056137 19.5988095,37.7776892 19.2833495,38.4400621 C18.9536156,39.1324058 18.8783059,39.0942062 18.0563947,39.7294875 C17.5452455,40.1245709 17.095589,41.1653775 17.011472,41.6150702 C16.9397759,41.9983605 17.2612164,42.0665741 17.3626725,41.8311854 C17.6778598,41.0999185 17.7675575,41.0079871 17.8937048,41.0168081 C17.97275,41.0223355 17.7696897,41.5961048 17.4636437,42.1535827 C17.2812744,42.4857772 17.1155067,42.6238868 17.0580842,42.8283478 C16.9042971,43.3759286 17.8766887,43.8385051 18.9166566,43.6840141 C19.9566246,43.5295232 20.8184731,41.6663535 21.2119027,39.0089826 C21.6053322,36.3516117 23.6373882,33.3685084 24.2701349,31.0553004 C24.691966,29.5131618 25.0324048,27.7883796 25.2914512,25.8809539 C24.874629,25.9650917 24.3099813,25.9822501 23.5975083,25.9324291 C22.8850353,25.8826082 22.2474945,25.8044546 21.6848857,25.6979683 Z" id="Path-53" fill="#DCBA9B" transform="translate(21.146297, 34.706065) rotate(-4.000000) translate(-21.146297, -34.706065) "></path>
                        <path d="M8.85187349,4.24916006 C8.54468055,6.28971986 10.1441155,9.87688579 11.2264754,10.4745575 C12.3088354,11.0722292 15.3940925,10.4630544 16.1208324,9.66563892 C16.8475723,8.86822343 17.6846636,7.37282567 17.6846636,5.59160612 C17.6846636,3.81038657 15.6049786,0.63641945 12.8767746,0.789176184 C10.1485705,0.941932917 9.15906642,2.20860026 8.85187349,4.24916006 Z" id="Path-62" fill="#E7C6A8"></path>
                        <path d="M8.66839061,5.00436405 C11.3488147,4.81221811 13.2675175,4.46388028 14.4244988,3.95935056 C14.6821664,5.21458177 15.1662851,6.00908998 15.8768546,6.34287519 C16.2802908,5.73239264 16.689389,5.64434473 17.104149,6.07873145 C17.5189091,6.51311818 17.3508799,7.49445265 16.6000615,9.02273487 C17.3509187,8.17835722 17.7885777,7.09931786 17.9130385,5.78561677 C18.0997298,3.81506515 18.3579823,0.2339716 13.3511025,0.00927346389 C10.0131827,-0.140525293 8.45227871,1.5245049 8.66839061,5.00436405 Z" id="Path-63" fill="#4A4A4A"></path>
                    </g>
                </g>
                <g id="Group-7" transform="translate(327.000000, 641.000000) rotate(-90.000000) translate(-327.000000, -641.000000) translate(312.000000, 599.000000)">
                    <path d="M3.07718104,38.4846562 C2.35527342,41.427506 3.04350178,43.0547502 5.14186613,43.3663888 C7.24023047,43.6780273 7.5613549,41.8225644 6.1052394,37.8 L3.07718104,38.4846562 Z" id="Path-75" fill="#FFD3B6"></path>
                    <path d="M15.8642928,12.6 C15.8492363,13.5441576 15.9632488,14.268221 16.2063304,14.77219 C16.4494119,15.2761591 17.1139685,15.6903245 18.2,16.0146864 L11.6130564,25.2 L8.4,17.2173176 C9.58184748,16.3755727 10.3072019,15.6549087 10.5760633,15.0553257 C10.8449247,14.4557426 10.9450896,13.6373007 10.8765579,12.6 L15.8642928,12.6 Z" id="Path-73" fill="#FFD3B6"></path>
                    <path d="M5.1748961,72.8 C5.1748961,72.8 4.90306339,74.1400425 3.18551192,74.9372873 C1.09233716,75.9088871 8.74300632e-17,76.7908931 0,77.6407768 C0,78.4906606 1.19649501,78.476416 2.59183769,78.3108923 C4.61768514,78.0705745 7.25538738,76.9498926 7.82307696,76.6941395 C8.46220833,76.4062007 8.57030409,75.2012957 8.14736423,73.0794244 C6.16571881,72.8931415 5.1748961,72.8 5.1748961,72.8 Z" id="Path-76" fill="#38373C"></path>
                    <path d="M16.2755579,78.4 C15.3271846,79.6370264 14.3316442,80.45326 13.2889368,80.8487007 C11.7248755,81.4418617 11.2,82.5257161 11.2,83.5299396 C11.2,84.1169446 13.4096655,84.1223983 15.146,83.7221658 C16.9691433,83.3019236 19.4183458,82.1587454 19.4900904,81.6805559 C19.6366365,80.7038028 19.6366365,79.6102842 19.4900904,78.4 L16.2755579,78.4 Z" id="Path-76" fill="#38373C"></path>
                    <path d="M4.2,72.4057889 L4.2,43.4 L21,43.4 L19.0341797,77.9432361 C18.3292318,78.2477454 17.5189453,78.4 16.6033203,78.4 C15.6876953,78.4 14.9136719,78.1234008 14.28125,77.5702024 C13.1604167,59.3694231 12.2408854,50.2690334 11.5226562,50.2690334 C10.8044271,50.2690334 9.8094401,57.7848691 8.53769531,72.8165407 C8.00904948,73.1159155 7.24140625,73.2656029 6.23476562,73.2656029 C5.228125,73.2656029 4.54986979,72.9789982 4.2,72.4057889 Z" id="Path-65" fill="#5A595E"></path>
                    <path d="M12.18706,18.9657741 C11.8979157,18.9657741 11.2751282,17.853524 10.3186975,15.6290237 L8.4,16.6643745 C8.45544142,22.3685712 8.60757373,25.3112123 8.85639693,25.4922979 C9.22963173,25.7639263 11.960851,29.6768639 12.3945674,29.3843982 C12.8282837,29.0919326 16.5864956,23.7518426 16.8725892,23.0759213 C17.0633183,22.6253071 17.5057886,20.5580784 18.2,16.8742353 L16.8725892,15.4 C14.0380473,17.7771827 12.4762042,18.9657741 12.18706,18.9657741 Z" id="Path-74" fill="#FFFFFF"></path>
                    <path d="M16.8,16.8066906 C16.8,16.9229056 15.4,18.1012814 12.6,20.3418181 L12.6,21 C15.4,18.0882454 16.8,16.6904756 16.8,16.8066906 Z" id="Path-80" fill="#D8D8D8"></path>
                    <path d="M9.82145258,16.806657 C9.91807323,16.9225688 10.23394,18.1472387 10.7690528,20.4806668 L11.2,20.4806668 L10.5107263,21 C9.95458983,18.0885262 9.72483193,16.6907452 9.82145258,16.806657 Z" id="Path-79" fill="#D8D8D8"></path>
                    <polygon id="Path-78" fill="#4A4A4A" points="11.3355659 21 9.8 25.7757402 11.1226019 28 12.6 26.0014857 12.1920839 21"></polygon>
                    <path d="M10.5996594,19.6 C10.0204635,20.0184042 9.7559027,20.3296178 9.80597701,20.5336406 C9.84201991,20.6804939 10.0658815,20.978112 10.3744623,20.9986813 C10.7089472,21.0209772 11.1305766,20.7549738 11.1858583,20.6231716 C11.256713,20.4542401 11.0613133,20.1131829 10.5996594,19.6 Z" id="Path-77" fill="#4A4A4A"></path>
                    <path d="M4.79043262,43.8912222 C5.1598615,44.6937109 7.78044452,46.9309115 12.5772155,47.4472622 C17.3739864,47.963613 20.4262489,47.139865 21.5205199,45.4433388 C22.6147908,43.7468125 22.4751485,20.0350905 22.2221054,19.3789267 C21.9690622,18.7227629 17.0581511,15.8577442 16.6026735,15.7033752 C16.2990217,15.6004626 14.3427749,18.7940101 10.7339331,25.2840179 C9.69626882,21.6601142 9.24478989,19.1503739 9.37949631,17.7547968 C9.51420272,16.3592198 9.74681966,15.5742875 10.0773471,15.4 C7.23162402,16.065357 5.34216812,17.3187588 4.40897944,19.1602055 C3.47579076,21.0016521 2.93946428,27.3583586 2.8,38.2303251 L4.40897944,38.2303251 C4.41699564,41.469264 4.5441467,43.3562297 4.79043262,43.8912222 Z" id="Path-66" fill="#5C8CC4"></path>
                    <path d="M7.01791805,8.21155413 C7.233165,11.4867284 8.16450238,16.8625762 13.0121374,15.0278442 C16.243894,13.8046895 17.4076801,11.5325928 16.5034957,8.21155413 C15.6812693,4.76124773 14.1471939,2.96222729 11.9012696,2.8144928 C8.53238312,2.59289107 6.8026711,4.93637986 7.01791805,8.21155413 Z" id="Path-71" fill="#FBDBC5"></path>
                    <path d="M5.71964703,7.68128042 C6.19116076,9.40637332 9.52715201,9.6931013 12.7940297,8.49596808 C13.1603503,9.00220023 13.4566506,9.38108409 13.6829307,9.63261966 C13.8938971,9.86713244 14.2539889,10.110739 14.7632059,10.3634394 C14.7632059,9.11845854 15.1916596,8.58003756 16.0485669,8.74817651 C16.9054743,8.91631546 17.1151306,10.0376954 16.6775359,12.1123164 L16.5850318,12.6 C18.0289573,9.97741539 18.5046342,7.41643805 18.0120627,4.91706798 C17.2732053,1.16801288 14.5508726,-0.572648652 10.3004841,0.167041776 C6.05009568,0.906732203 5.2481333,5.95618753 5.71964703,7.68128042 Z" id="Path-72" fill="#764D33"></path>
                    <path d="M19.6,43.0930463 C21.2932229,43.5023179 22.7102004,43.5023179 23.8509326,43.0930463 C25.5620309,42.479139 25.6406686,21.6267403 24.1139298,20.0066638 C23.0961039,18.9266128 22.3846359,18.3243915 21.9795258,18.2 L19.6,43.0930463 Z" id="Path-67" fill="#5C8CC4"></path>
                    <polygon id="Path-70" fill="#161616" points="29.4 45.3210332 27.4305182 44.8 11.2 53.7582714 12.0066219 65.0738632 13.7215931 65.8"></polygon>
                    <path d="M20.6727782,48.6663234 C21.0656752,49.3748317 22.4636973,48.7954304 23.1885731,48.3946449 C23.7676946,48.0744473 23.8078409,47.1096441 23.799037,46.5378259 C23.787948,45.8175918 23.549006,45.1525394 23.1885731,44.3531895 C23.0965027,44.1490004 22.9454248,43.8312705 22.7353396,43.4 L20.0980271,43.6029183 C19.8059642,45.3425118 19.6430008,46.4698354 19.6091371,46.9848893 C19.519739,48.3445998 20.1079016,48.4480893 20.4325705,47.6152809 C20.5306971,47.3635765 20.5369801,48.4214398 20.6727782,48.6663234 Z" id="Path-68" fill="#FFD3B6"></path>
                    <polygon id="Path-69" fill="#353439" points="29.4 58.0908348 29.4 46.2 12.6 55.635556 13.3155811 67.2"></polygon>
                    <path d="M19.5973376,43.4755584 L18.7608728,43.4755584 C19.0136391,39.0488082 19.1604077,35.9902887 19.2011786,34.3 C19.3467024,28.2668345 19.2011786,25.1079848 19.2011786,24.6262223 C19.2011786,23.5998882 20.6276371,21.2239592 20.9672275,21.0149478 C21.3068179,20.8059364 18.8984963,22.8280361 18.7608728,24.6262223 C18.6926931,25.5170572 18.5086564,31.311085 17.5062649,39.2581698 C17.3555166,40.4533208 17.3300493,42.350468 16.7781115,44.3539223 C16.5821936,45.0650763 16.1228231,46.1471022 15.4,47.6 C16.3391921,47.5474246 17.0412804,47.4817981 17.5062649,47.4031204 C17.9712494,47.3244427 18.5362206,47.1751033 19.2011786,46.9551023 C19.2629006,46.1528728 19.3195884,45.5605941 19.3712419,45.1782662 C19.4228954,44.7959382 19.4982606,44.228369 19.5973376,43.4755584 Z" id="Path-82" fill="#000000" opacity="0.100000001"></path>
                    <polygon id="Path-81" fill="#000000" opacity="0.100000001" points="11.2 25.2 13.9909622 28.6435343 11.2 47.6 15.4 28.6435343"></polygon>
                    <path d="M3.63932556,37.8 C3.95295077,27.2023314 4.13828437,21.6157667 4.19532637,21.040306 C4.25236836,20.4648452 3.78725957,26.0514099 2.8,37.8 L3.63932556,37.8 Z" id="Path-83" fill="#000000" opacity="0.100000001"></path>
                </g>
                <path d="M432,441 L606.008153,539.595956" id="Line-5" stroke="#FFFFFF" opacity="0.100000001" stroke-linecap="square"></path>
                <circle id="Oval-6" stroke="#FFFFFF" stroke-width="4" opacity="0.5" cx="185" cy="223" r="15"></circle>
                <circle id="Oval-6" stroke="#FFFFFF" stroke-width="4" opacity="0.400000006" cx="235" cy="223" r="15"></circle>
                <path d="M138.5,341.541351 L138.5,367.114644 L157.830078,377.78482 L157.830078,352.211528 L138.5,341.541351 Z" id="Rectangle-15" stroke="#F6BF65" stroke-width="3" transform="translate(148.165039, 359.663086) scale(-1, 1) translate(-148.165039, -359.663086) "></path>
                <path d="M178.5,319.541351 L178.5,345.114644 L197.830078,355.78482 L197.830078,330.211528 L178.5,319.541351 Z" id="Rectangle-15" stroke="#F6BF65" stroke-width="3" transform="translate(188.165039, 337.663086) scale(-1, 1) translate(-188.165039, -337.663086) "></path>
                <circle id="Oval-6" fill="#FFFFFF" cx="235" cy="223" r="8"></circle>
                <rect id="Rectangle-14" fill="#F8E71C" x="99" y="153" width="40" height="8"></rect>
                <rect id="Rectangle-14" fill="#F8E71C" opacity="0.600000024" x="99" y="166" width="40" height="8"></rect>
                <rect id="Rectangle-14" fill="#F8E71C" opacity="0.200000003" x="99" y="179" width="40" height="8"></rect>
                <path d="M558,591 L732.008153,689.595956" id="Line-5" stroke="#FFFFFF" opacity="0.100000001" stroke-linecap="square"></path>
                <path d="M478.265321,557.478681 L533.366244,526.849723 C534.355761,520.156867 533.372682,515.689679 530.417009,513.448162 C525.983499,510.085885 521.451929,512.389186 518.889734,513.996779 C517.093615,506.287338 513.358077,503.572481 507.683122,505.85221 C499.170689,509.271802 493.264447,518.71875 493.264447,530.347576 C488.910178,529.527683 485.108859,531.053931 481.860491,534.926319 C478.612122,538.798707 477.413732,546.316161 478.265321,557.478681 Z" id="Path-84" stroke="#FFFFFF" transform="translate(505.869262, 531.275236) scale(-1, 1) translate(-505.869262, -531.275236) "></path>
                <path d="M490.265321,550.478681 L545.366244,519.849723 C546.355761,513.156867 545.372682,508.689679 542.417009,506.448162 C537.983499,503.085885 533.451929,505.389186 530.889734,506.996779 C528.319368,499.152953 523.917164,496.438096 517.683122,498.85221 C508.332059,502.47338 503.38236,511.534663 505.264447,523.347576 C500.910178,522.527683 497.108859,524.053931 493.860491,527.926319 C490.612122,531.798707 489.413732,539.316161 490.265321,550.478681 Z" id="Path-84" stroke="#FFFFFF" opacity="0.200000003" transform="translate(517.869262, 524.239341) scale(-1, 1) translate(-517.869262, -524.239341) "></path>
                <polygon id="Path-85" stroke="#F57BA3" points="134 273 134 301.125219 165.987224 287.06261"></polygon>
                <g id="Rectangle-10" transform="translate(361.000000, 265.000000)">
                    <mask id="mask-6" fill="white">
                        <use xlink:href="#path-5"></use>
                    </mask>
                    <use id="Mask" fill="#B7676B" xlink:href="#path-5"></use>
                    <polygon fill="#000000" opacity="0.200000003" mask="url(#mask-6)" points="25.2363281 0.597900391 51 1 51 30 25.2363281 30"></polygon>
                </g>
                <g id="Rectangle-10" transform="translate(157.923394, 430.900635) scale(1, -1) rotate(300.000000) translate(-157.923394, -430.900635) translate(131.923394, 415.400635)">
                    <mask id="mask-8" fill="white">
                        <use xlink:href="#path-7"></use>
                    </mask>
                    <use id="Mask" fill="#985A5D" xlink:href="#path-7"></use>
                    <polygon fill="#000000" opacity="0.200000003" mask="url(#mask-8)" points="26.2363281 0.597900391 52 1 52 30 26.0749134 78.5423521"></polygon>
                </g>
                <g id="Rectangle-10" transform="translate(365.263140, 709.489092) scale(-1, 1) rotate(120.000000) translate(-365.263140, -709.489092) translate(321.263140, 681.989092)">
                    <mask id="mask-10" fill="white">
                        <use xlink:href="#path-9"></use>
                    </mask>
                    <use id="Mask" fill="#B7676B" xlink:href="#path-9"></use>
                    <polygon fill="#000000" opacity="0.200000003" mask="url(#mask-10)" points="65.2071082 -1.54222369 91.7636719 -1.59790039 91.7636719 27.4020996 65.8464847 84.1650624"></polygon>
                </g>
                <path d="M153.21282,602.813892 C152.84174,602.608022 152.424362,602.5 152,602.5 C150.619288,602.5 149.5,603.619288 149.5,605 L149.5,630.969424 C149.5,634.421515 151.372626,637.601927 154.391283,639.276633 L224.78718,678.331232 C225.15826,678.537102 225.575638,678.645124 226,678.645124 C227.380712,678.645124 228.5,677.525836 228.5,676.145124 L228.5,646.054102 C228.5,645.145657 228.007204,644.308706 227.21282,643.867994 L153.21282,602.813892 Z" id="Rectangle-19" stroke="#93C0FF"></path>
                <path d="M169.21282,594.813892 C168.84174,594.608022 168.424362,594.5 168,594.5 C166.619288,594.5 165.5,595.619288 165.5,597 L165.5,622.969424 C165.5,626.421515 167.372626,629.601927 170.391283,631.276633 L240.78718,670.331232 C241.15826,670.537102 241.575638,670.645124 242,670.645124 C243.380712,670.645124 244.5,669.525836 244.5,668.145124 L244.5,638.054102 C244.5,637.145657 244.007204,636.308706 243.21282,635.867994 L169.21282,594.813892 Z" id="Rectangle-19" stroke="#93C0FF" opacity="0.200000003"></path>
                <path d="M133.455384,611.376671 L207.455384,652.430772 C208.408644,652.959627 209,653.963968 209,655.054102 L209,685.145124 C209,686.801978 207.656854,688.145124 206,688.145124 C205.490766,688.145124 204.989912,688.015497 204.544616,687.768453 L134.148719,648.713855 C130.971186,646.951006 129,643.603204 129,639.969424 L129,614 C129,612.343146 130.343146,611 132,611 C132.509234,611 133.010088,611.129627 133.455384,611.376671 Z" id="Rectangle-19" fill="#23A9F6"></path>
            </g>
        </g>
    </g>
</svg>