<?xml version="1.0" encoding="UTF-8"?>
<svg width="540px" height="363px" viewBox="0 0 540 363" version="1.1" xmlns="http://www.w3.org/2000/svg" xmlns:xlink="http://www.w3.org/1999/xlink">
    <!-- Generator: Sketch 48.2 (47327) - http://www.bohemiancoding.com/sketch -->
    <title>illustration_2</title>
    <desc>Created with Sketch.</desc>
    <defs>
        <linearGradient x1="5.95703125%" y1="50%" x2="100%" y2="50%" id="linearGradient-1">
            <stop stop-color="#B38CE4" stop-opacity="0" offset="0%"></stop>
            <stop stop-color="#8B63CD" stop-opacity="0.722790611" offset="72.2790611%"></stop>
            <stop stop-color="#8B63CD" stop-opacity="0.722790611" offset="72.2790611%"></stop>
            <stop stop-color="#8159C7" stop-opacity="0.902842324" offset="90.2842324%"></stop>
            <stop stop-color="#7B54C4" offset="100%"></stop>
        </linearGradient>
        <path d="M0.848632812,60.9902344 C5.98535156,63.453776 13.9835612,64.6855469 24.8432617,64.6855469 C35.7029622,64.6855469 43.7011719,63.453776 48.8378906,60.9902344 C45.8192512,51.3256724 45.1512825,39.1000864 46.8339844,24.3134766 C47.7604167,16.172526 45.9671224,9.56315104 41.4541016,4.48535156 C34.9065755,2.12727865 28.9222005,0.948242188 23.5009766,0.948242188 C18.2841797,0.948242188 13.0813802,2.12727865 7.89257813,4.48535156 C3.5381798,13.79834 2.01832303,21.5652671 3.33300781,27.7861328 C5.71582031,39.0611979 4.88769531,50.1292318 0.848632812,60.9902344 Z" id="path-2"></path>
        <linearGradient x1="50%" y1="100%" x2="50%" y2="0%" id="linearGradient-4">
            <stop stop-color="#F1E76E" offset="0%"></stop>
            <stop stop-color="#000000" offset="100%"></stop>
        </linearGradient>
        <path d="M0.825407609,8.53881836 C5.01120924,7.81317817 7.52088995,5.09067112 8.35444973,0.371297201 L14.1603261,0.278727214 C14.920856,4.8421224 18.0264946,7.59548611 23.4772418,8.53881836 C23.7387908,19.2932129 20.2109375,24.6505737 12.8936821,24.6109009 C5.57642663,24.571228 1.55366848,19.2138672 0.825407609,8.53881836 Z" id="path-5"></path>
        <path d="M26.3854475,0.0111588963 C24.5982186,0.0428800677 22.1922926,-0.101027003 20.1959669,0.180225948 C7.64910228,1.94789475 0.119628906,9.48150167 0.119628906,22.0629883 C0.119628906,30.4572238 2.28321785,46.5414157 6.61039574,70.3155641 C9.65355315,73.1141234 16.6706208,74.6605549 27.6615988,74.9548585 C38.6525768,75.2491622 46.4047546,74.1044127 50.9181324,71.5206102 C55.9886283,44.5674206 57.8886431,27.3387393 56.6181767,19.8345662 C54.7124771,8.57830659 47.3016844,-0.360079244 26.3854475,0.0111588963 Z" id="path-7"></path>
        <path d="M0.54296875,7.72070313 C3.25488281,13.2299805 5.94873047,17.3427734 8.34375,19.9047852 C12.5338542,14.8387044 15.1341146,10.9475911 16.1445312,8.23144531 C14.3417969,7.13997396 13.3229167,4.67822266 13.0878906,0.846191406 L3.86181641,0.846191406 C4.15999349,4.59879557 3.05371094,6.89029948 0.54296875,7.72070313 Z" id="path-9"></path>
        <path d="M24.4663086,78.1054687 C23.0644531,59.7670898 29.0927734,43.402832 28.7768555,36.1210938 C28.4609375,28.8393555 19.0424805,4.953125 22.3564453,0.104492188 C13.9752604,2.41634115 8.60595703,4.41145833 6.24853516,6.08984375 C2.71240234,8.60742187 0.751953125,17.9804688 0.751953125,34.0288086 C0.751953125,50.0771484 2.68969727,73.1450195 3.01000977,74.2402344 C3.33032227,75.3354492 9.1105957,74.7749023 10.3259277,73.8793945 L10.0424805,73.2922363 C15.5603841,75.5756022 20.3683268,77.180013 24.4663086,78.1054687 Z" id="path-11"></path>
        <path d="M23.7143555,78.0009766 C22.3125,59.6625977 28.3408203,43.2983398 28.0249023,36.0166016 C27.7089844,28.7348633 18.2905273,4.84863281 21.6044922,0 C13.2233073,2.31184896 7.85400391,4.30696615 5.49658203,5.98535156 C1.96044922,8.50292969 0,17.8759766 0,33.9243164 C3.02034295e-16,49.9726563 2.06152344,73.6567383 2.38183594,74.7519531 C2.70214844,75.847168 8.35772344,75.3774414 9.57305547,74.4819336 L9.37627813,73.140625 C14.8370146,75.4554036 19.6163737,77.0755208 23.7143555,78.0009766 Z" id="path-13"></path>
    </defs>
    <g id="UXPH2018_AboutUs" stroke="none" stroke-width="1" fill="none" fill-rule="evenodd" transform="translate(0.000000, -1012.000000)">
        <g id="illustration_2" transform="translate(-38.000000, 1012.000000)">
            <polygon id="Path-8" fill-opacity="0.3" fill="url(#linearGradient-1)" points="21 326.413514 21 349 570 349 570 0"></polygon>
            <polygon id="Path-8" fill-opacity="0.3" fill="url(#linearGradient-1)" opacity="0.200000003" points="0 338.645164 0 349 252 349 252 189"></polygon>
            <g id="Group-16" transform="translate(128.000000, 0.000000)">
                <g id="Group-2" opacity="0.100000001" fill="#000000">
                    <rect id="Rectangle-9" x="96" y="0" width="5" height="5"></rect>
                    <rect id="Rectangle-9" x="128" y="0" width="5" height="5"></rect>
                    <rect id="Rectangle-9" x="96" y="32" width="5" height="5"></rect>
                    <rect id="Rectangle-9" x="128" y="32" width="5" height="5"></rect>
                    <rect id="Rectangle-9" x="160" y="0" width="5" height="5"></rect>
                    <rect id="Rectangle-9" x="96" y="64" width="5" height="5"></rect>
                    <rect id="Rectangle-9" x="128" y="64" width="5" height="5"></rect>
                    <rect id="Rectangle-9" x="160" y="64" width="5" height="5"></rect>
                    <rect id="Rectangle-9" x="0" y="0" width="5" height="5"></rect>
                    <rect id="Rectangle-9" x="32" y="0" width="5" height="5"></rect>
                    <rect id="Rectangle-9" x="0" y="32" width="5" height="5"></rect>
                    <rect id="Rectangle-9" x="32" y="32" width="5" height="5"></rect>
                    <rect id="Rectangle-9" x="64" y="0" width="5" height="5"></rect>
                    <rect id="Rectangle-9" x="64" y="32" width="5" height="5"></rect>
                    <rect id="Rectangle-9" x="0" y="64" width="5" height="5"></rect>
                    <rect id="Rectangle-9" x="32" y="64" width="5" height="5"></rect>
                    <rect id="Rectangle-9" x="64" y="64" width="5" height="5"></rect>
                    <rect id="Rectangle-9" x="96" y="96" width="5" height="5"></rect>
                    <rect id="Rectangle-9" x="128" y="96" width="5" height="5"></rect>
                    <rect id="Rectangle-9" x="0" y="96" width="5" height="5"></rect>
                    <rect id="Rectangle-9" x="32" y="96" width="5" height="5"></rect>
                    <rect id="Rectangle-9" x="64" y="96" width="5" height="5"></rect>
                    <rect id="Rectangle-9" x="288" y="0" width="5" height="5"></rect>
                    <rect id="Rectangle-9" x="320" y="0" width="5" height="5"></rect>
                    <rect id="Rectangle-9" x="288" y="32" width="5" height="5"></rect>
                    <rect id="Rectangle-9" x="320" y="32" width="5" height="5"></rect>
                    <rect id="Rectangle-9" x="352" y="0" width="5" height="5"></rect>
                    <rect id="Rectangle-9" x="352" y="32" width="5" height="5"></rect>
                    <rect id="Rectangle-9" x="288" y="64" width="5" height="5"></rect>
                    <rect id="Rectangle-9" x="320" y="64" width="5" height="5"></rect>
                    <rect id="Rectangle-9" x="352" y="64" width="5" height="5"></rect>
                    <rect id="Rectangle-9" x="192" y="0" width="5" height="5"></rect>
                    <rect id="Rectangle-9" x="224" y="0" width="5" height="5"></rect>
                    <rect id="Rectangle-9" x="256" y="0" width="5" height="5"></rect>
                    <rect id="Rectangle-9" x="192" y="64" width="5" height="5"></rect>
                    <rect id="Rectangle-9" x="256" y="64" width="5" height="5"></rect>
                    <rect id="Rectangle-9" x="288" y="96" width="5" height="5"></rect>
                    <rect id="Rectangle-9" x="192" y="96" width="5" height="5"></rect>
                    <rect id="Rectangle-9" x="256" y="96" width="5" height="5"></rect>
                    <rect id="Rectangle-9" x="96" y="129" width="5" height="5"></rect>
                    <rect id="Rectangle-9" x="128" y="129" width="5" height="5"></rect>
                    <rect id="Rectangle-9" x="96" y="160" width="5" height="5"></rect>
                    <rect id="Rectangle-9" x="128" y="160" width="5" height="5"></rect>
                    <rect id="Rectangle-9" x="96" y="193" width="5" height="5"></rect>
                    <rect id="Rectangle-9" x="128" y="193" width="5" height="5"></rect>
                    <rect id="Rectangle-9" x="0" y="129" width="5" height="5"></rect>
                    <rect id="Rectangle-9" x="32" y="129" width="5" height="5"></rect>
                    <rect id="Rectangle-9" x="0" y="160" width="5" height="5"></rect>
                    <rect id="Rectangle-9" x="32" y="160" width="5" height="5"></rect>
                    <rect id="Rectangle-9" x="64" y="129" width="5" height="5"></rect>
                    <rect id="Rectangle-9" x="64" y="160" width="5" height="5"></rect>
                    <rect id="Rectangle-9" x="0" y="193" width="5" height="5"></rect>
                    <rect id="Rectangle-9" x="32" y="193" width="5" height="5"></rect>
                    <rect id="Rectangle-9" x="64" y="193" width="5" height="5"></rect>
                    <rect id="Rectangle-9" x="96" y="225" width="5" height="5"></rect>
                    <rect id="Rectangle-9" x="128" y="225" width="5" height="5"></rect>
                    <rect id="Rectangle-9" x="160" y="225" width="5" height="5"></rect>
                    <rect id="Rectangle-9" x="0" y="225" width="5" height="5"></rect>
                    <rect id="Rectangle-9" x="32" y="225" width="5" height="5"></rect>
                    <rect id="Rectangle-9" x="64" y="225" width="5" height="5"></rect>
                    <rect id="Rectangle-9" x="288" y="129" width="5" height="5"></rect>
                    <rect id="Rectangle-9" x="320" y="129" width="5" height="5"></rect>
                    <rect id="Rectangle-9" x="288" y="160" width="5" height="5"></rect>
                    <rect id="Rectangle-9" x="320" y="160" width="5" height="5"></rect>
                    <rect id="Rectangle-9" x="352" y="129" width="5" height="5"></rect>
                    <rect id="Rectangle-9" x="352" y="160" width="5" height="5"></rect>
                    <rect id="Rectangle-9" x="288" y="193" width="5" height="5"></rect>
                    <rect id="Rectangle-9" x="320" y="193" width="5" height="5"></rect>
                    <rect id="Rectangle-9" x="352" y="193" width="5" height="5"></rect>
                    <rect id="Rectangle-9" x="192" y="129" width="5" height="5"></rect>
                    <rect id="Rectangle-9" x="224" y="129" width="5" height="5"></rect>
                    <rect id="Rectangle-9" x="192" y="160" width="5" height="5"></rect>
                    <rect id="Rectangle-9" x="224" y="160" width="5" height="5"></rect>
                    <rect id="Rectangle-9" x="256" y="129" width="5" height="5"></rect>
                    <rect id="Rectangle-9" x="256" y="160" width="5" height="5"></rect>
                    <rect id="Rectangle-9" x="192" y="193" width="5" height="5"></rect>
                    <rect id="Rectangle-9" x="224" y="193" width="5" height="5"></rect>
                    <rect id="Rectangle-9" x="256" y="193" width="5" height="5"></rect>
                    <rect id="Rectangle-9" x="288" y="225" width="5" height="5"></rect>
                    <rect id="Rectangle-9" x="320" y="225" width="5" height="5"></rect>
                    <rect id="Rectangle-9" x="352" y="225" width="5" height="5"></rect>
                    <rect id="Rectangle-9" x="192" y="225" width="5" height="5"></rect>
                    <rect id="Rectangle-9" x="224" y="225" width="5" height="5"></rect>
                    <rect id="Rectangle-9" x="256" y="225" width="5" height="5"></rect>
                </g>
                <rect id="Rectangle-9" fill="#EC3558" x="224" y="64" width="5" height="5"></rect>
                <rect id="Rectangle-9" fill="#EC3558" x="224" y="96" width="5" height="5"></rect>
                <rect id="Rectangle-9" fill="#15B0DE" x="320" y="96" width="5" height="5"></rect>
                <rect id="Rectangle-9" fill="#15B0DE" x="352" y="96" width="5" height="5"></rect>
                <rect id="Rectangle-9" fill="#EC3558" x="160" y="96" width="5" height="5"></rect>
                <rect id="Rectangle-9" fill="#EC3558" x="160" y="129" width="5" height="5"></rect>
                <rect id="Rectangle-9" fill="#EC3558" x="160" y="160" width="5" height="5"></rect>
                <rect id="Rectangle-9" fill="#EC3558" x="160" y="193" width="5" height="5"></rect>
                <rect id="Rectangle-9" fill="#15B0DE" x="160" y="32" width="5" height="5"></rect>
                <rect id="Rectangle-9" fill="#15B0DE" x="192" y="32" width="5" height="5"></rect>
                <rect id="Rectangle-9" fill="#15B0DE" x="224" y="32" width="5" height="5"></rect>
                <rect id="Rectangle-9" fill="#15B0DE" x="256" y="32" width="5" height="5"></rect>
            </g>
            <g id="Group-17" transform="translate(384.000000, 169.000000)">
                <path d="M22.6555176,142.692383 L27.8371582,179.598633 C30.2894694,179.556315 31.6308594,179.535156 31.8613281,179.535156 C32.0917969,179.535156 32.4251302,163.357096 32.8613281,131.000977 L35.2109375,179.598633 C38.1302083,180.344076 39.5735677,180.344076 39.5410156,179.598633 C39.5084635,178.85319 40.4909668,166.371338 42.4885254,142.153076 L42.2138672,121.358398 L26.1708984,119 L22.6555176,142.692383 Z" id="Path-122" fill="#EDB9A2"></path>
                <path d="M18.7792969,148.381836 C15.1866605,135.194715 12.7302803,125.377657 11.4101562,118.930664 C10.0900322,112.483671 8.75897753,103.804309 7.41699219,92.8925781 C13.7587891,92.8925781 21.3689779,92.8925781 30.2475586,92.8925781 C39.1261393,92.8925781 46.7363281,92.8925781 53.078125,92.8925781 C52.4786792,104.476532 51.7973641,113.155894 51.0341797,118.930664 C50.2709952,124.705434 48.6528312,133.425486 46.1796875,145.09082 C43.5377604,147.951497 39.2955729,149.381836 33.453125,149.381836 C27.6106771,149.381836 22.719401,149.048503 18.7792969,148.381836 Z" id="Path-109" fill="#F48FB1"></path>
                <path d="M25.7173649,176.758789 C25.80683,180.918294 24.2617188,183.866536 21.0820313,185.603516 C19.2534245,186.602435 17.7283919,189.168061 19.440918,189.645996 C22.1951513,190.414653 28.0550152,189.668221 28.9130859,188.745117 C29.8408203,187.74707 30.3046875,185.89463 30.3046875,183.187797 L30.3046875,188.745117 L31.5532227,188.745117 C32.9135742,183.930339 33.0970052,179.934896 32.1035156,176.758789 C29.5807292,176.370117 27.4520123,176.370117 25.7173649,176.758789 Z" id="Path-123" fill="#9F8176"></path>
                <path d="M41.0231671,176.291504 C41.1126322,180.451009 39.5675209,183.399251 36.3878334,185.13623 C34.5592267,186.13515 33.0341941,188.700776 34.7467202,189.178711 C37.5009535,189.947368 43.3608174,189.200935 44.2188881,188.277832 C45.1466225,187.279785 45.6104897,185.427345 45.6104897,182.720512 L45.6104897,188.277832 L46.8590248,188.277832 C48.2193764,183.463053 48.4028074,179.467611 47.4093178,176.291504 C44.8865314,175.902832 42.7578144,175.902832 41.0231671,176.291504 Z" id="Path-123" fill="#9F8176" transform="translate(41.019152, 182.748916) scale(-1, 1) translate(-41.019152, -182.748916) "></path>
                <g id="Path-129" transform="translate(5.000000, 33.000000)">
                    <mask id="mask-3" fill="white">
                        <use xlink:href="#path-2"></use>
                    </mask>
                    <use id="Mask" fill="#F1E76E" xlink:href="#path-2"></use>
                    <path d="M4,46.8061523 C4.58544922,41.6189779 4.78059896,38.6038411 4.58544922,37.7607422 C4.44971544,37.174336 11.2901804,38.5487019 24.2822266,39.4755859 C31.2998047,39.976237 38.593099,39.1510417 46.1621094,37 L46.1621094,47.8095703 C36.3022369,48.3800695 29.0089427,48.6090734 24.2822266,48.496582 C19.5555105,48.3840907 12.7947683,47.8206141 4,46.8061523 Z" fill="url(#linearGradient-4)" opacity="0.100000001" mask="url(#mask-3)"></path>
                </g>
                <path d="M21.8676758,42.4506836 C21.8676758,42.4506836 14.9838867,29.7597656 16.3364258,19.1274414 C17.6889648,8.49511719 41.7094727,17.6557617 42.0854492,18.1308594 C42.4614258,18.605957 41.6816406,38.4233398 40.6889648,41.2856445 C39.6962891,44.1479492 21.8676758,42.4506836 21.8676758,42.4506836 Z" id="Path-137" fill="#452F1D"></path>
                <polygon id="Path-134" fill="#EBE065" points="25.1630859 29.3740234 24.0908203 34.4853516 34.4023438 34.4853516 32.9970703 29.3740234"></polygon>
                <path d="M18,14.6347656 C18,21.4511719 20.9001537,31.6796875 29.93531,31.8095703 C38.9704662,31.9394531 42.0322266,20.2890625 41.8652344,14.6347656 C41.6982422,8.98046875 37.1904297,1 29.9358327,1 C22.6812357,1 18,7.81835938 18,14.6347656 Z" id="Path-132" fill="#EDB9A2"></path>
                <path d="M31.1630859,74.1606445 C42.3066406,74.1606445 47.1235352,73.6567383 51.9179687,71.2597656 C56.7124023,68.862793 58.0283203,66.4760742 58.6743164,62.5249023 C59.0235307,60.3889672 58.3314108,53.6726298 55.6977539,47.6708984 C53.4595255,42.5702926 48.7339121,38.306825 45.3618164,36.4985352 C40.1962891,33.7285156 18.0708008,33.2246094 13.3613281,36.4985352 C8.65185547,39.7724609 2.33203125,45.0976562 0.642089844,53.3222656 C-1.04785156,61.546875 1.02392578,68.168457 4.19238281,70.6557617 C5.29747026,71.5232784 9.02185584,72.4454992 15.3655396,73.4224243 C15.4205332,73.5909413 15.4761769,73.6781198 15.5324707,73.68396 C20.286723,74.1771829 25.9421965,74.1606445 31.1630859,74.1606445 Z" id="Path-124" fill="#F1E76E"></path>
                <path d="M39.7644653,62.2403564 C39.2200724,61.4365641 38.5889689,60.9865316 37.8711548,60.8902588 C36.7944336,60.7458496 31.8242805,61.2178437 28.3349609,61.4975586 C22.6940337,61.9497531 15.310562,63.3500321 12.6210938,63.0097656 C8.57389323,62.4977214 8.57389323,57.7875977 12.6210937,48.8793945" id="Path-126" stroke="#000000" stroke-width="0.5" opacity="0.100000001"></path>
                <path d="M9.91259766,72.4462891 C15.7636051,70.8169759 20.3065739,69.4877116 23.5415039,68.4584961 C33.3652344,65.3330078 41.1181641,64.6982422 44.4799805,63.472168 C48.5307482,61.9948292 48.9400906,57.566932 45.7080078,50.1884766" id="Path-125" stroke="#000000" stroke-width="0.5" opacity="0.100000001"></path>
                <path d="M15.3634033,73.4191284 C15.21875,72.1760864 15.4337769,71.3875732 16.0084839,71.0535889 C16.5831909,70.7196045 14.5992839,71.2659505 10.0567627,72.692627 C10.555566,72.8567797 10.9310542,72.9627367 11.1832275,73.010498 C11.6927127,73.1069939 12.254132,73.1803455 12.6914062,73.241272 C13.4533285,73.3474325 14.3439941,73.4067179 15.3634033,73.4191284 Z" id="Path-131" fill="#EDB9A2"></path>
                <path d="M37.7021484,64.7354126 C37.3630778,64.2188517 37.1935425,63.7988688 37.1935425,63.4754639 C37.1935425,62.5396989 37.2257783,61.9225828 37.7021484,61.5019531 C37.9336154,61.2975703 38.3772913,61.5063844 39.0523071,61.5019531 C39.9843864,61.4958343 41.1198015,61.122358 42.2091675,61.362793 C44.1117554,61.7827148 44.9311372,62.6299275 44.9765625,62.8892212 C45.0445964,63.2775675 42.6197917,63.8929647 37.7021484,64.7354126 Z" id="Path-130" fill="#EDB9A2"></path>
                <path d="M24.253418,50.5869141 C24.253418,50.5869141 16.4399414,33.6860352 18.6806641,20.5302734 C20.1744792,11.7597656 22.921224,7.97281901 26.9208984,9.16943359 C27.5315755,11.2179362 30.5594076,14.5535482 36.0043945,19.1762695 C40.216253,22.7520812 41.6816284,30.1198755 39.1484375,40.6933594 C38.6540002,42.7571299 37.4145796,46.0549815 35.4301758,50.5869141 C37.4350586,49.0797526 39.3408203,46.988444 41.1474609,44.3129883 C44.9129705,38.7366418 46.2978889,31.2312576 46.8325195,28.7387695 C47.8959961,23.7807617 48.1904297,-5.24755859 26.9208984,0.979980469 C18.9775391,0.979980469 14.7236328,6.26513672 13.8901367,20.5302734 C13.602556,25.4521653 15.0203129,32.5774588 17.0244141,37.8178711 C20.2002123,46.1220887 24.253418,50.5869141 24.253418,50.5869141 Z" id="Path-136" fill="#724F31"></path>
            </g>
            <g id="Group-17" transform="translate(268.000000, 160.000000)">
                <path d="M9.80473308,39 C5.97678937,39.9433182 3.48082278,41.4240844 2.31683331,43.4422988 C0.57084909,46.4696203 -2.68597173,70.5561005 4.18959734,94.4652589 C8.77331004,110.404698 10.645022,91.9162781 9.80473308,39 Z" id="Path-142" fill="#D7B699"></path>
                <path d="M38.4931307,39 C42.8451554,39.6632385 45.2943875,41.0719323 45.8408269,43.2260814 C46.6604861,46.457305 47.4801452,70.9696091 46.6604861,76.2111884 C46.1140466,79.7055746 43.9258525,86.6351785 40.0959037,97 L30,68 L38.4931307,39 Z" id="Path-11" fill="#D7B699"></path>
                <g id="Path-18" transform="translate(12.000000, 30.000000)">
                    <mask id="mask-6" fill="white">
                        <use xlink:href="#path-5"></use>
                    </mask>
                    <use id="Mask" fill="#D7B699" xlink:href="#path-5"></use>
                    <path d="M7.30460258,1.89285278 C9.94420856,4.44463094 12.5838145,4.27504645 15.2234205,1.38409932 C14.7578974,0.117535061 14.5251359,-0.51574707 14.5251359,-0.51574707 L7.80825408,-0.936381022 L7.30460258,1.89285278 Z" fill="#000000" opacity="0.05" mask="url(#mask-6)"></path>
                </g>
                <path d="M14.0529785,197.882936 C18.7870368,195.831434 21.1768219,193.351927 21.2223338,190.444417 C21.2678457,187.536906 19.6652251,176.055434 16.4144722,156 L27,156 L25.5202637,197.602295 C20.3983561,199.681234 16.9153646,200.720703 15.0712891,200.720703 C13.2272135,200.720703 12.8877767,199.774781 14.0529785,197.882936 Z" id="Path-143" fill="#D7B699"></path>
                <path d="M28,155.251488 C28,155.995802 28.7783203,169.999538 30.3349609,197.262695 C33.9459561,199.562088 36.3815843,200.837805 37.6418457,201.089844 C38.9021071,201.341883 40.2036207,200.878179 41.5463867,199.69873 C38.1878711,197.963686 36.0988411,195.598533 35.2792969,192.603271 C34.4597526,189.60801 35.4682272,176.740253 38.3047207,154 C31.4349069,154.09001 28,154.507173 28,155.251488 Z" id="Path-144" fill="#D7B699"></path>
                <path d="M30.1027655,196 C29.9275202,197.703333 29.9764084,198.904999 30.24943,199.604999 C30.6589625,200.654999 34.4396477,201.926516 38.5322144,202.732112 C42.6247811,203.537708 45.13475,202.403368 43.4892243,200.964198 C42.3922071,200.004752 41.237151,199.261168 40.0240558,198.733446 C40.9375542,199.452568 40.6306452,199.894365 39.1033285,200.058835 C37.5760119,200.223306 34.5758242,198.870361 30.1027655,196 Z" id="Path-19" fill="#6F81CC"></path>
                <path d="M14.7306856,197.208324 C14.414456,198.690968 15.2374541,199.297598 17.1996798,199.028212 C19.1619056,198.758826 22.044413,197.416088 25.847202,195 C26.1664881,197.07062 25.98539,198.413357 25.3039077,199.028212 C24.2816842,199.950493 12.6297549,203.127739 11.2925363,201.583064 C10.4010573,200.553281 11.547107,199.095034 14.7306856,197.208324 Z" id="Path-12" fill="#6F81CC"></path>
                <path d="M6.15940985,155.052124 C3.53935683,109.358655 2.91758511,80.8315966 4.29409469,69.4709496 C2.5686351,65.3762093 2.5686351,59.7069136 4.29409469,52.4630624 C6.01955428,45.2192111 6.641326,41.0026825 6.15940985,39.8134766 L12.6523438,38 C15.1690661,47.6420416 18.776381,52.4630624 23.4742883,52.4630624 C28.1721956,52.4630624 31.7456607,47.6420416 34.1946834,38 L39.9624342,39.258197 C41.9374637,49.3227391 41.9374637,59.3936567 39.9624342,69.4709496 C44.312425,116.320265 47.6582802,144.20151 50,153.114687 C34.9706924,160.251707 20.3571624,160.897519 6.15940985,155.052124 Z" id="Path-10" fill="#71E0F2"></path>
                <path d="M12,18.2609105 C13.087735,22.875853 15.6541689,26.001141 19.6993018,27.6367743 C23.7444348,29.2724077 28.5113342,25.3840031 34,15.9715607 C32.2444544,11.9828167 31.1260353,9.99230394 30.6447427,10.0000224 C30.1634502,10.0077408 23.9485359,12.7613701 12,18.2609105 Z" id="Path-17" fill="#B84211"></path>
                <path d="M13,16.9486504 C13,22.9221198 17.895989,31.9228202 23.0008302,31.9995682 C28.1056713,32.0763162 33.1370737,21.9037203 32.9971477,16.9486504 C32.8572216,11.9935805 29.0800372,5 23.0012681,5 C16.9224991,5 13,10.975181 13,16.9486504 Z" id="Path-132" fill="#D7B699"></path>
                <path d="M10.9097345,22 C12.5737812,18.9005803 14.9455458,17.2393023 18.0250281,17.0161662 C22.6442516,16.6814619 29.8486539,15.673728 31.1224429,13.0354104 C31.2656347,16.3821077 31.9014132,18.5927765 33.0297783,19.6674168 C35.9018558,15.6432063 37.8596689,2 22.2600031,2 C11.8602259,2 8.07680299,8.66666667 10.9097345,22 Z" id="Path-16" fill="#B84211"></path>
                <ellipse id="Oval-13" fill="#B84211" cx="22.5" cy="3.5" rx="5.5" ry="3.5"></ellipse>
            </g>
            <g id="Group-15" transform="translate(466.000000, 133.000000)">
                <ellipse id="Oval-9" fill="#DEB38C" cx="77.5" cy="22" rx="16.5" ry="18"></ellipse>
                <polygon id="Path-118" fill="#DEB38C" points="54.8570312 215 54.8570312 220.078125 62 220.078125 62 215"></polygon>
                <polygon id="Path-118" fill="#DEB38C" points="85 215 85 220.078125 92.1429688 220.078125 92.1429688 215"></polygon>
                <path d="M53.0292969,120.205078 C53.0292969,121.134758 50.3203125,133.990878 50.3203125,152.582031 C50.3203125,164.021609 51.5590495,185.610801 54.0365234,217.349609 L62.9154297,217.349609 C65.9023594,174.339819 70.1818516,152.750626 75.7539063,152.582031 C81.3259609,152.413437 84.2158046,174.002629 84.4234375,217.349609 L93.0515625,217.349609 C96.7387313,189.185637 98.9031845,167.596444 99.5449219,152.582031 C100.186659,137.567618 100.186659,127.219962 99.5449219,121.539063 C68.5345052,118.861979 53.0292969,118.417318 53.0292969,120.205078 Z" id="Path-102" fill="#7FCD67"></path>
                <path d="M100.098674,129.471354 C99.4104953,130.129123 99.0664062,131.409397 99.0664062,133.312174 C99.0664062,135.214952 99.4104953,135.961697 100.098674,135.552409 C99.8227997,138.512321 100.153949,140.249734 101.092122,140.764648 C101.911784,141.214518 103.816983,140.75657 104.801758,139.278971 C106.636719,136.525716 107.445313,133.040885 106.467773,128.865885 C105.052947,122.823261 102.929913,123.025084 100.098674,129.471354 Z" id="Path-120" fill="#DEB38C"></path>
                <path d="M107.021159,129.927734 C109.402561,116.305339 110.855794,102.59847 111.380859,88.8071289 C111.735881,79.4821524 110.198765,67.0473713 105.852417,59.0024414 C103.831545,55.2618815 101.092084,52.2644857 97.6340332,50.0102539 C93.9731355,53.871239 92.9270472,57.5535849 94.4957682,61.0572917 C95.8785532,64.145714 98.5241979,70.2631747 99.9599609,79.34375 C101.549264,89.3953993 101.549264,106.049588 99.9599609,129.306315 C100.572808,129.910699 101.642578,130.335612 103.169271,130.581055 C104.695964,130.826497 105.979926,130.608724 107.021159,129.927734 Z" id="Path-103" fill="#E8F5FD"></path>
                <path d="M74.358724,44.8375651 C72.3801762,44.8725005 69.7167011,44.7140119 67.5066732,45.023763 C53.6166946,46.9705424 44.1575521,50.8717448 20.2161458,58.5032552 C14.5915279,60.2961461 8.14176662,63.0182599 0.866861979,66.6695964 L5.48242188,71.8014323 C31.5262587,66.781467 47.187717,66.9335938 52.4667969,72.2578125 C57.0105775,76.8404448 57.0105775,93.5097156 52.4667969,122.265625 C55.8357175,125.347751 63.6039467,127.050876 75.7714844,127.375 C87.9390221,127.699124 96.5210533,126.438382 101.517578,123.592773 C107.130859,93.9085286 109.234266,74.9341363 107.827799,66.6695964 C105.718099,54.2727865 97.5139974,44.4287109 74.358724,44.8375651 Z" id="Path-101" fill="#E8F5FD"></path>
                <rect id="Rectangle-18" fill="#000000" opacity="0.100000001" x="66" y="70" width="22" height="20"></rect>
                <path d="M52.6463216,122.440918 C74.285753,122.805176 86.9794922,118.582682 90.7275391,109.773437 C99.2835931,89.6636637 94.2758242,72.3912279 96.2695312,69.9399414 C98.2631054,67.4888183 100.770996,74.5626589 100.770996,93.9960937 C100.770996,100.46224 100.483073,111.097656 99.9072266,125.902344 C92.2840712,128.592882 83.2381727,129.617622 72.7695312,128.976563 C62.3008898,128.335503 55.5931532,126.156955 52.6463216,122.440918 Z" id="Path-104" fill="#000000" opacity="0.100000001"></path>
                <path d="M68.0493164,44.9404297 C68.311344,44.9404297 71.175293,44.6933594 71.6459961,42.487793 C71.9225192,41.1920928 72.0359632,39.539749 71.9863281,37.5307617 L83.7131348,37.5307617 C83.3531087,40.0681152 83.3531087,41.945109 83.7131348,43.1617432 C84.0731608,44.3783773 85.2499593,45.2985026 87.2435303,45.9221191 C74.0310465,45.2676595 67.6329753,44.9404297 68.0493164,44.9404297 Z" id="Path-106" fill="#DEB38C"></path>
                <path d="M67.5582275,45.0207113 C68.5656331,53.0179715 71.4622396,57.1292318 76.2480469,57.3544922 C81.0338542,57.5797526 84.7448324,53.7701009 87.3809814,45.9255371 C84.0329183,45.2164442 80.8901367,44.8160943 77.9526367,44.7244873 C75.3310244,44.6427314 72.0034614,44.675857 68.68632,44.8833008 C68.4337036,44.8990986 68.0576728,44.9449021 67.5582275,45.0207113 Z" id="Path-105" fill="#DEB38C"></path>
                <path d="M92.1824906,219 C91.4351115,220.453343 90.6919148,221.462458 89.9529007,222.027344 C89.1604511,222.633075 87.0108492,222.664371 85.8706742,223.168457 C84.3016942,223.862123 83.8118786,225.014475 83.8512573,225.830998 C84.0132953,229.190878 98.2376064,228.476159 99.9131672,227.153578 C101.030208,226.271858 101.200711,223.553998 100.424678,219 L92.1824906,219 Z" id="Path-117" fill="#747474" transform="translate(92.375474, 223.627866) scale(-1, 1) translate(-92.375474, -223.627866) "></path>
                <path d="M54.0641803,219 C53.0886628,220.555427 52.2313969,221.615583 51.4923828,222.180469 C50.63232,222.837882 49.0787011,223.117457 48.2249023,223.627473 C47.2094857,224.234031 46.9650129,225.065102 47.00195,225.830998 C47.1639881,229.190878 60.1554939,228.474729 61.8310547,227.152148 C62.9480952,226.270428 63.2144014,223.553045 62.6299732,219 L54.0641803,219 Z" id="Path-117" fill="#747474"></path>
                <path d="M61.9716797,27.9846191 C61.9716797,27.625 62.1667204,20.5840582 67.0620117,21.1337891 C71.1992187,21.5983887 73.3554687,18.6245117 78.3894043,19.1652832 C84.3190929,19.8022811 87.5373535,14.8776855 89.2375488,15.9709473 C89.6216121,16.2179081 88.8779964,19.0716987 89.6008301,22.6162109 C89.8288597,23.7343847 90.5746279,25.6724544 91.8381348,28.4304199 C92.1149902,25.8439941 92.5014648,24.5507813 92.9975586,24.5507813 C93.4936523,24.5507813 93.7416992,24.913737 93.7416992,25.6396484 C96.1574158,22.343845 97.1100525,18.8619928 96.5996094,15.1940918 C96.1368815,11.8690592 94.5497233,9.32275391 91.8381348,7.55517578 C89.3986816,2.91845703 85.2438151,0.600097656 79.3735352,0.600097656 C71.3953255,0.600097656 64.6530762,1.84179688 60.9575195,10.7753906 C57.2619629,19.7089844 61.9716797,28.3442383 61.9716797,27.9846191 Z" id="Path-121" fill="#3E2723"></path>
            </g>
            <g id="Group-15" transform="translate(322.000000, 153.000000)">
                <polygon id="Path-118" fill="#DEB38C" points="11 196 11 201 17 201 17 196"></polygon>
                <polygon id="Path-118" fill="#DEB38C" points="39 196 39 201 45 201 45 196"></polygon>
                <path d="M9.452511,110.972974 C9.452511,111.815399 7,123.464907 7,140.311187 C7,150.677102 8.12145943,170.24004 10.3643783,199 L18.4026732,199 C21.106815,160.026896 24.9811458,140.463958 30.0256656,140.311187 C35.0701854,140.158415 37.6864329,159.721353 37.8744081,199 L45.6856645,199 C49.0237502,173.479359 50.9832835,153.916421 51.5642644,140.311187 C52.1452452,126.705952 52.1452452,117.329476 51.5642644,112.181757 C23.4897621,109.755932 9.452511,109.353004 9.452511,110.972974 Z" id="Path-102" fill="#000000"></path>
                <path d="M51.9240564,119.551086 C51.3080188,120.150883 51,121.318321 51,123.053398 C51,124.788476 51.3080188,125.469407 51.9240564,125.096191 C51.677102,127.795233 51.9735378,129.37952 52.8133637,129.849053 C53.5471014,130.259274 55.2525817,129.841687 56.1341242,128.494315 C57.7767293,125.983716 58.5005595,122.806019 57.6254942,118.99898 C56.3589814,113.488919 54.4585021,113.672955 51.9240564,119.551086 Z" id="Path-120" fill="#F1CEAE"></path>
                <path d="M4.9240564,119.551086 C4.3080188,120.150883 4,121.318321 4,123.053398 C4,124.788476 4.3080188,125.469407 4.9240564,125.096191 C4.67710203,127.795233 4.97353779,129.37952 5.8133637,129.849053 C6.54710142,130.259274 8.25258171,129.841687 9.13412422,128.494315 C10.7767293,125.983716 11.5005595,122.806019 10.6254942,118.99898 C9.35898139,113.488919 7.45850212,113.672955 4.9240564,119.551086 Z" id="Path-120" fill="#F1CEAE" transform="translate(7.500000, 122.500000) scale(-1, 1) translate(-7.500000, -122.500000) "></path>
                <path d="M58.001011,119.320518 C60.1609921,106.993068 61.4791052,94.5891756 61.9553502,82.1088405 C62.2773619,73.6702972 60.883166,62.4175674 56.9409378,55.1373893 C55.1079647,51.7524074 52.6232163,49.0399443 49.4866927,47 C46.1661823,50.4939595 45.2173584,53.8262613 46.640221,56.9969053 C47.8944357,59.791742 50.2940905,65.3276763 51.5963575,73.5450513 C53.0378886,82.6411899 53.0378886,97.7122296 51.5963575,118.75817 C52.1522227,119.305101 53.1225264,119.689622 54.5072684,119.911733 C55.8920105,120.133844 57.0565914,119.936772 58.001011,119.320518 Z" id="Path-103" fill="#E8F5FD"></path>
                <g id="Path-104" transform="translate(3.000000, 43.000000)">
                    <mask id="mask-8" fill="white">
                        <use xlink:href="#path-7"></use>
                    </mask>
                    <use id="Mask" fill="#E8F5FD" xlink:href="#path-7"></use>
                    <path d="M6,69.9198651 C25.3351033,70.2494061 36.6771184,66.4293518 40.0260452,58.4597022 C47.6709868,40.2665591 43.1964825,24.6403318 44.9778847,22.4226735 C46.7591682,20.2051631 49,26.6048072 49,44.1860721 C49,50.0359398 48.742737,59.6577117 48.2282111,73.0513879 C41.4168262,75.4854952 33.3342025,76.4125685 23.9803401,75.8326077 C14.6264777,75.252647 8.63303098,73.2817328 6,69.9198651 Z" fill="#D0DCE3" mask="url(#mask-8)"></path>
                </g>
                <path d="M45.3302476,200 C44.6728363,201.256167 44.019104,202.128374 43.3690506,202.616622 C42.6719943,203.140173 40.7811564,203.167224 39.7782331,203.602919 C38.3981232,204.202475 37.9672705,205.198487 38.0019089,205.904231 C38.1444412,208.808274 50.6564627,208.190522 52.1303234,207.047377 C53.1128971,206.28528 53.2628759,203.936154 52.5802597,200 L45.3302476,200 Z" id="Path-117" fill="#214E73" transform="translate(45.500000, 204.000000) scale(-1, 1) translate(-45.500000, -204.000000) "></path>
                <path d="M10.2086581,200 C9.35147169,201.344515 8.598193,202.260917 7.94882198,202.749206 C7.1930856,203.317475 5.82792212,203.559141 5.07768994,204 C4.18544425,204.524311 3.9706263,205.24269 4.00308289,205.904733 C4.14546556,208.809022 15.5610896,208.189981 17.0334033,207.046739 C18.0149457,206.284578 18.2489487,203.935665 17.7354122,200 L10.2086581,200 Z" id="Path-117" fill="#214E73"></path>
                <path d="M14.9497534,118.158539 C15.9295067,106.605742 16.6575058,94.5891756 17.1337508,82.1088405 C17.4557625,73.6702972 17.2026601,61.2801781 13.2604319,54 C11.4274587,50.6150181 7.92810975,47.710884 2.76238501,45.2875977 C0.710346817,49.9231587 0.395759025,53.8262613 1.81862163,56.9969053 C3.07283638,59.791742 5.47249116,65.3276763 6.77475817,73.5450513 C8.21628922,82.6411899 8.80640312,97.3249033 8.54509985,117.596191 C9.10096504,118.143122 10.0712687,118.527643 11.4560107,118.749754 C12.8407528,118.971865 14.0053337,118.774793 14.9497534,118.158539 Z" id="Path-103" fill="#E8F5FD" transform="translate(9.089200, 82.062809) scale(-1, 1) translate(-9.089200, -82.062809) "></path>
                <g id="Path-20" transform="translate(23.000000, 36.000000)">
                    <mask id="mask-10" fill="white">
                        <use xlink:href="#path-9"></use>
                    </mask>
                    <use id="Mask" fill="#F1CEAE" xlink:href="#path-9"></use>
                    <path d="M2.98730469,2.08984375 C5.37264153,4.47593857 7.50268711,5.67206487 9.37744141,5.67822266 C11.2894809,5.68450291 12.6948242,4.15722656 14.6699219,2.08984375 C14.3170573,-0.565104167 14.140625,-1.89257812 14.140625,-1.89257812 L2.43945312,-2.50585938 L2.98730469,2.08984375 Z" fill="#000000" opacity="0.100000001" mask="url(#mask-10)"></path>
                </g>
                <g id="Path-14" transform="translate(0.000000, 43.000000)">
                    <mask id="mask-12" fill="white">
                        <use xlink:href="#path-11"></use>
                    </mask>
                    <use id="Mask" fill="#2C2C2C" xlink:href="#path-11"></use>
                    <path d="M10.168457,73.8754883 C7.79974953,59.2141072 7.64208984,27.3544922 11.171875,23.3164062 C14.7016602,19.2783203 12.1254883,41.1723633 12.1254883,48.4931641 C12.1254883,55.8139648 12.3540039,65.6137695 19.7973633,77.5922852 C16.7026367,77.0024414 17.0395508,76.6879883 10.168457,73.8754883 Z" fill="#000000" opacity="0.200000003" mask="url(#mask-12)"></path>
                </g>
                <g id="Path-15" transform="translate(33.000000, 43.000000)">
                    <mask id="mask-14" fill="white">
                        <use xlink:href="#path-13"></use>
                    </mask>
                    <use id="Mask" fill="#2C2C2C" transform="translate(14.018461, 39.000488) scale(-1, 1) translate(-14.018461, -39.000488) " xlink:href="#path-13"></use>
                    <path d="M19.0581055,73.5605469 C21.7937826,40.1542969 22.1381836,23.4511719 20.0913086,23.4511719 C17.0209961,23.4511719 18.1728516,35.9311523 18.1728516,44.7001953 C18.1728516,53.4692383 16.8051758,68.9506836 11.0371094,76.378418 C15.2682292,75.5232747 17.9418945,74.5839844 19.0581055,73.5605469 Z" fill="#000000" opacity="0.200000003" mask="url(#mask-14)"></path>
                </g>
                <circle id="Oval-8" fill="#000000" cx="36" cy="79" r="1"></circle>
                <path d="M32,39 C35.9365234,39 47,28.8265656 47,19.7138672 C47,10.6011688 40.2842712,6 32,6 C23.7157288,6 17,10.6011688 17,19.7138672 C17,28.8265656 28.0634766,39 32,39 Z" id="Oval-9" fill="#F1CEAE"></path>
                <path d="M15.7055664,20.3513184 C21.3813477,20.6727702 26.5964355,20.1752116 31.3508301,18.8586426 C34.7642506,17.913411 38.1846607,16.4453935 41.6120605,14.4545898 C42.0053047,15.6490632 42.745295,17.2525788 43.8320312,19.2651367 C44.6971029,20.8671875 45.7259115,22.3514811 46.918457,23.7180176 C48.8165825,20.6422904 49.5323214,17.4569876 49.0656738,14.1621094 C48.6426475,11.1752301 47.2579633,8.89747941 44.9116211,7.32885742 C42.2178528,2.96964518 38.1876607,0.790039062 32.8210449,0.790039062 C25.5273577,0.790039063 18.0571289,4.68212891 16.0915527,9.56835938 C14.7811686,12.8258464 14.6525065,16.420166 15.7055664,20.3513184 Z" id="Path-121" fill="#000000"></path>
            </g>
            <g id="Group-14" transform="translate(451.000000, 160.000000)">
                <path d="M10.4421596,44 C5.05217372,46.4105091 1.83336285,50.0945904 0.785726935,55.052244 C-0.261908978,60.0098975 -0.261908978,66.9924829 0.785726935,76 L12,75.422038 L10.4421596,44 Z" id="Path-108" fill="#659FE3"></path>
                <path d="M63.4677734,43.7558594 C58.0607117,45.7512483 54.8333628,49.2277695 53.7857269,54.185423 C52.738091,59.1430766 52.738091,66.0812689 53.7857269,75 L65,74.422038 L63.4677734,43.7558594 Z" id="Path-108" fill="#659FE3" transform="translate(59.000000, 59.377930) scale(-1, 1) translate(-59.000000, -59.377930) "></path>
                <path d="M16.3787897,141.837792 C15.6429841,151.083465 15.6429841,158.05529 16.3787897,162.753266 C17.4824982,169.80023 20.6131933,189.370566 19.2017254,192.082962 C17.7902576,194.795359 14.1677218,197.152774 14.0019184,199.050925 C13.8913829,200.316358 18.5574101,200.316358 28,199.050925 C26.8448723,174.218364 26.7479599,155.724911 27.7092628,143.570565 C28.6705657,131.41622 24.8937413,130.838629 16.3787897,141.837792 Z" id="Path-111" fill="#D5B595"></path>
                <path d="M39.4037243,141.837792 C38.6602555,151.083465 38.6602555,158.05529 39.4037243,162.753266 C40.5189275,169.80023 43.6822276,189.370566 42.2560599,192.082962 C40.8298921,194.795359 37.169629,197.152774 37.0020989,199.050925 C36.8904121,200.316358 41.2361076,200.316358 50.0391853,199.050925 C49.6098806,174.218364 49.8808855,155.724911 50.8521999,143.570565 C51.8235144,131.41622 48.0073559,130.838629 39.4037243,141.837792 Z" id="Path-111" fill="#D5B595" transform="translate(44.000000, 167.000000) scale(-1, 1) translate(-44.000000, -167.000000) "></path>
                <path d="M11.859375,104 C9.86935821,104 10.3012156,117.666667 13.1549471,145 L28.4973139,145 C28.6990023,131.673332 30.0533543,124.839998 32.56037,124.5 C35.0673857,124.160002 36.4419104,130.993335 36.6839441,145 L50,145 C53.3229167,117.685547 53.3229167,104.01888 50,104 C45.015625,103.97168 14.8444002,104 11.859375,104 Z" id="Path-110" fill="#B07FB9"></path>
                <path d="M11.171203,105.855915 L10,43.941204 C15.6728392,41.9804013 23.7378501,41 34.1950326,41 C44.6522151,41 51.9205376,42.1148055 56,44.3444164 L51.595613,105.550681 C45.323919,107.18356 38.5944167,108 31.4071059,108 C24.2197952,108 17.4744942,107.285305 11.171203,105.855915 Z" id="Path-107" fill="#6BA7EE"></path>
                <circle id="Oval-7" fill="#000000" opacity="0.100000001" cx="32" cy="69" r="11"></circle>
                <path d="M45,74.3753673 C45.7399295,79.3841555 46.9056347,85.168968 48.4971157,91.7298049 C50.0885968,98.2906418 52.863809,105.380707 56.8227523,113 L61,110.941714 C57.4323405,103.064041 55.2057057,96.0357852 54.3200955,89.8569475 C53.4344854,83.6781099 52.8069146,78.3924607 52.4373832,74 L45,74.3753673 Z" id="Path-112" fill="#D5B595" transform="translate(53.000000, 93.500000) scale(-1, 1) translate(-53.000000, -93.500000) "></path>
                <path d="M3,75.3794278 C3.41791201,81.0637832 4.42930802,87.2218647 6.03418803,93.8536723 C7.63906804,100.48548 10.2235331,107.534256 13.7875832,115 L18,112.919449 C14.8719522,105.149268 12.8613951,98.1413402 11.9683289,91.8956641 C11.0752626,85.6499879 10.5858197,80.0180999 10.5,75 L3,75.3794278 Z" id="Path-112" fill="#D5B595"></path>
                <path d="M32.210337,38 C40.3784423,38 47,27.870755 47,18.7580566 C47,9.64535827 40.3784423,5 32.210337,5 C24.0422317,5 18,9.64535827 18,18.7580566 C18,27.870755 24.0422317,38 32.210337,38 Z" id="Oval-10" fill="#D5B595"></path>
                <path d="M19.5166016,26.9396973 C17.3988444,22.1221517 16.6962891,17.8760579 17.4089355,14.201416 C18.4779053,8.68945312 28.7253418,7.91772461 32.8408203,8.14038086 C36.9562988,8.36303711 45.5388184,9.83862305 47.2766113,14.5944824 C48.43514,17.7650553 47.881429,21.7784831 45.6154785,26.6347656 C46.3063965,22.8287198 46.3063965,20.3600512 45.6154785,19.2287598 C45.0517366,18.3057032 41.2736353,18.4858029 37.5966797,17.9399414 C34.5139603,17.4822971 31.8634763,16.3700907 27.7353516,15.0690918 C21.7006836,13.1672363 18.9611003,17.1241048 19.5166016,26.9396973 Z" id="Path-4" fill="#000000"></path>
                <path d="M17,16 C17.1270752,5.86668758 21.8912362,0.544544422 31.2924832,0.0335705159 C40.6937301,-0.47740339 46.2629024,4.84473977 48,16 C43.4998899,15.5333318 38.2302736,15.2999977 32.191151,15.2999977 C26.1520284,15.2999977 21.0883114,15.5333318 17,16 Z" id="Path-113" fill="#4A4A4A"></path>
                <path d="M19.6882164,192 C15.1293958,194.250141 12.9011119,196.464228 13.0033648,198.64226 C13.1567441,201.909309 26.6209622,201.214337 28.2069874,199.928299 C29.2643375,199.07094 29.2643375,196.428174 28.2069874,192 L19.6882164,192 Z" id="Path-117" fill="#747474"></path>
                <path d="M43.6882164,192 C39.1293958,194.250141 36.9011119,196.464228 37.0033648,198.64226 C37.1567441,201.909309 50.6209622,201.214337 52.2069874,199.928299 C53.2643375,199.07094 53.2643375,196.428174 52.2069874,192 L43.6882164,192 Z" id="Path-117" fill="#747474" transform="translate(45.000000, 196.500000) scale(-1, 1) translate(-45.000000, -196.500000) "></path>
                <path d="M17.1577473,16 C16.0154388,12.6666667 21.0770509,11 32.3425835,11 C43.6081161,11 48.7944741,12.6666667 47.9016575,16 C44.2169162,15.5681364 38.9793638,15.3522045 32.1890005,15.3522045 C25.3986371,15.3522045 20.3882194,15.5681364 17.1577473,16 Z" id="Path-114" fill="#73437C"></path>
                <path d="M28.294524,36 C28.3655187,37.0967894 28.2955639,38.1339451 28.0846596,39.111467 C27.8737554,40.0889888 27.5122022,41.0518332 27,42 L36.6958008,42 C36.4480723,41.1235896 36.2331539,40.1607453 36.0510456,39.111467 C35.8689373,38.0621886 35.7367441,37.025033 35.654466,36 L28.294524,36 Z" id="Path-115" fill="#D5B595"></path>
                <path d="M31.9729938,50.1030273 C36.733927,50.1030273 39.3837885,47.1171142 39.9225784,41.1452879 C37.9833841,41.0381597 35.3993953,40.9902748 32.1706119,41.0016333 C28.9418285,41.0129918 26.2260942,41.1401285 24.0234092,41.3830433 C24.5621991,47.196366 27.2120606,50.1030273 31.9729938,50.1030273 Z" id="Path-116" fill="#D5B595"></path>
                <path d="M13.9360044,39.320745 C13.1420424,39.6131355 10.8582433,40.584563 11.006933,44.497 C11.0751172,46.2911156 11.4649991,47.7588953 12.4700433,48.1901886 C13.4633079,48.616427 15.3261415,48.6328629 16.7783336,48.2948683 C18.3993684,47.917576 18.0263523,46.0517829 18.6848989,43.7810799 C19.3987067,41.3198338 22.3495935,42.8777168 22.5468224,41.9189396 C22.6867396,41.2387677 21.3320925,40.2767602 18.6848989,39.4914398 C16.0377054,38.7061193 14.7299665,39.0283546 13.9360044,39.320745 Z" id="Path-119" fill="#DEB38C"></path>
            </g>
        </g>
    </g>
</svg>